<svg xmlns="http://www.w3.org/2000/svg" width="587" height="416" fill="none" viewBox="0 0 587 416"><g clip-path="url(#clip0_24_20)" filter="url(#filter0_d_24_20)"><path fill="#F2F2F2" d="M339.599 129.123C351.69 129.123 361.491 119.348 361.491 107.289C361.491 95.2309 351.69 85.4555 339.599 85.4555C327.508 85.4555 317.707 95.2309 317.707 107.289C317.707 119.348 327.508 129.123 339.599 129.123Z"/><path fill="#F2F2F2" d="M209.462 85.4555C219.538 85.4555 227.706 77.3093 227.706 67.2605C227.706 57.2118 219.538 49.0656 209.462 49.0656C199.387 49.0656 191.219 57.2118 191.219 67.2605C191.219 77.3093 199.387 85.4555 209.462 85.4555Z"/><path fill="#F2F2F2" d="M149.867 257.701C159.943 257.701 168.11 249.555 168.11 239.506C168.11 229.457 159.943 221.311 149.867 221.311C139.791 221.311 131.624 229.457 131.624 239.506C131.624 249.555 139.791 257.701 149.867 257.701Z"/><path fill="#E6E6E6" d="M131.324 267.405C136.609 273.652 142.325 318.688 148.424 324.134L434.591 324.741C440.691 319.294 446.407 274.258 451.692 268.011L131.324 267.405H131.324Z"/><path fill="#3F3D56" d="M220.529 214.504V276.706H264.222V214.503C264.223 213.585 263.624 212.773 262.744 212.502C262.542 212.436 262.33 212.403 262.118 212.405H222.639C221.476 212.403 220.531 213.341 220.529 214.501V214.504H220.529ZM237.58 235.877C237.604 233.307 239.712 231.244 242.288 231.268C244.83 231.291 246.885 233.341 246.909 235.877V243.094C246.896 245.663 244.798 247.736 242.222 247.724C239.664 247.711 237.592 245.646 237.58 243.094V235.877Z"/><path fill="#3F3D56" d="M151.793 120.787V234.36C151.796 237.374 154.245 239.816 157.266 239.819H326.018C329.04 239.816 331.489 237.374 331.491 234.36V120.787C331.484 117.777 329.037 115.339 326.018 115.335H157.266C154.248 115.339 151.801 117.777 151.793 120.787Z"/><path fill="#2E69C2" d="M155.752 122.201V232.959C155.755 234.569 157.063 235.874 158.677 235.876H324.614C326.228 235.874 327.536 234.569 327.539 232.959V122.201C327.539 120.588 326.23 119.281 324.614 119.277H158.677C157.061 119.281 155.752 120.588 155.752 122.201Z"/><path fill="#3F3D56" d="M189.588 283.305C189.93 283.733 190.45 283.981 190.999 283.978H289.72C290.723 283.977 291.536 283.164 291.534 282.164C291.534 282.04 291.521 281.916 291.496 281.794L289.963 274.535C289.834 273.933 289.408 273.438 288.832 273.219C288.627 273.138 288.408 273.097 288.188 273.097H192.525C192.304 273.097 192.086 273.138 191.88 273.219C191.304 273.438 190.878 273.933 190.749 274.535L189.217 281.794C189.106 282.328 189.243 282.883 189.588 283.305H189.588Z"/><path fill="#3F3D56" d="M164.012 134.535H319.279C319.62 134.527 319.89 134.246 319.883 133.906C319.875 133.576 319.609 133.31 319.279 133.303H164.012C163.671 133.311 163.401 133.592 163.408 133.932C163.416 134.262 163.682 134.528 164.012 134.535Z"/><path fill="#CCC" d="M512.025 254.866C512.013 254.836 512.007 254.812 511.995 254.788C511.76 254.157 511.486 253.541 511.174 252.944C509.404 249.626 511.277 244.532 509.283 238.903C506.06 229.782 502.131 224.402 496.372 219.58C496.202 219.435 496.032 219.295 495.856 219.15L495.849 219.144C492.006 215.996 487.372 213.054 481.62 209.391C480.421 208.627 476.28 210.835 476.378 207.05C476.487 202.847 476.603 198.492 474.535 195.775L474.401 195.599L474.188 195.545C467.099 194.146 459.869 193.591 452.649 193.889H452.643C449.577 194.003 446.533 194.448 443.564 195.217C443.345 195.278 443.126 195.339 442.913 195.411C442.749 195.454 442.585 195.509 442.42 195.563L442.287 195.612L442.183 195.709C440.183 197.704 439.72 201.282 439.501 205.012V205.018C439.459 205.698 439.422 206.377 439.392 207.056C439.222 210.683 430.447 213.612 427.102 215.256C420.82 218.349 421.768 225.557 421.695 225.557C421.695 225.557 411.133 247.182 411.005 269.083C410.999 270.302 410.991 271.527 410.981 272.758C410.908 282.959 410.713 293.337 409.947 302.792C409.613 306.855 409.181 310.743 408.603 314.376C405.794 332.068 393.066 317.378 386.979 329.15C387.179 330.308 387.515 331.438 387.982 332.516C388.681 332.929 389.399 333.329 390.11 333.729C393.266 335.482 396.481 337.118 399.755 338.636C399.937 338.721 400.12 338.806 400.302 338.885C406.307 341.655 412.496 344.01 418.826 345.932C420.06 346.308 421.294 346.666 422.541 347.006C433.568 350.042 444.923 351.738 456.358 352.058C456.405 352.053 456.452 352.051 456.498 352.052C470.022 351.679 483.458 349.747 496.537 346.296C496.719 346.248 496.901 346.199 497.084 346.15C497.941 345.92 498.793 345.69 499.644 345.447C507.171 343.311 514.546 340.673 521.719 337.55C521.726 337.817 521.752 338.082 521.798 338.345C521.804 338.43 521.816 338.516 521.834 338.6C521.846 338.503 521.859 338.406 521.865 338.308C521.901 338.023 521.931 337.732 521.962 337.441C525.684 301.245 517.954 270.514 512.025 254.866V254.866Z"/><path fill="#FFB6B6" d="M458.192 190.746C477.696 190.746 493.506 174.977 493.506 155.526C493.506 136.075 477.696 120.306 458.192 120.306C438.689 120.306 422.879 136.075 422.879 155.526C422.879 174.977 438.689 190.746 458.192 190.746Z"/><path fill="#2F2E41" d="M460.807 191.38C466.191 190.421 471.483 189.004 476.625 187.147C481.674 185.059 491.756 174.178 494.024 168.369C495.709 164.053 496.095 157.749 496.121 153.221C496.235 141.095 491.188 129.491 482.234 121.287C480.501 119.568 478.334 118.347 475.962 117.755C475.755 117.717 475.544 117.689 475.332 117.671C472.003 117.455 468.814 116.252 466.176 114.216C465.66 113.8 465.115 113.422 464.545 113.085C461.704 111.506 458.528 110.619 455.277 110.498C449.997 110.133 442.995 112.874 434.464 118.647C430.179 121.548 424.925 121.82 420.826 121.734C420.361 121.734 419.93 121.982 419.696 122.383C418.328 124.275 416.294 125.58 414.001 126.037C412.607 126.372 411.511 128.6 410.223 131.478C409.931 132.131 409.59 132.893 409.329 133.367L409.13 132.592L408.506 133.621C405.293 138.913 406.991 145.8 412.297 149.004C413.723 149.865 415.323 150.399 416.982 150.567C418.469 150.667 419.963 150.616 421.44 150.414C422.34 150.321 423.272 150.225 424.178 150.207C430.134 150.264 435.622 153.437 438.63 158.564C439.881 160.66 442.598 161.349 444.7 160.102C445.03 159.906 445.333 159.668 445.602 159.394C447.175 157.593 449.533 156.674 451.913 156.934C452.973 157.279 453.881 157.976 454.486 158.909C455.202 159.94 456.209 160.736 457.38 161.194C461.3 162.333 463.131 170.401 463.173 177.415C463.213 184.176 461.696 189.367 459.484 190.039C457.782 190.555 457.607 190.717 457.541 191.048L457.482 191.344L457.728 191.563C458.755 191.724 459.805 191.661 460.807 191.38H460.807Z"/><path fill="#3F3D56" d="M335.822 300.269C342.584 300.269 348.065 298.524 348.065 296.372C348.065 294.22 342.584 292.475 335.822 292.475C329.061 292.475 323.58 294.22 323.58 296.372C323.58 298.524 329.061 300.269 335.822 300.269Z"/><path fill="#3F3D56" d="M335.822 297.671C342.584 297.671 348.065 295.926 348.065 293.774C348.065 291.622 342.584 289.877 335.822 289.877C329.061 289.877 323.58 291.622 323.58 293.774C323.58 295.926 329.061 297.671 335.822 297.671Z"/><path fill="#3F3D56" d="M333.67 296.385L335.494 296.358L334.991 262.383C334.842 251.101 340.718 240.592 350.418 234.787L385.239 214.029L384.303 212.467L349.482 233.226C339.223 239.364 333.009 250.479 333.167 262.41L333.67 296.385Z"/><path fill="#2E69C2" d="M384.335 229.345H384.335C381.889 229.345 379.907 227.368 379.907 224.929V197.391C379.907 194.952 381.889 192.975 384.335 192.975H384.335C386.78 192.975 388.763 194.952 388.763 197.391V224.929C388.763 227.368 386.78 229.345 384.335 229.345Z"/><path fill="#FFB6B6" d="M326.425 250.23C327.959 255.828 333.753 259.125 339.365 257.595C339.963 257.432 340.546 257.216 341.107 256.951L367.367 283.563L371.43 264.588L345.87 242.225C343.016 237.132 336.563 235.311 331.457 238.157C327.183 240.538 325.103 245.53 326.425 250.23H326.425Z"/><path fill="#CCC" d="M463.594 222.442L463.427 222.349L444.28 215.782C439.362 214.096 433.955 214.596 429.433 217.157C428.395 217.743 427.419 218.431 426.52 219.212L426.514 219.213C423.514 221.798 421.446 225.293 420.628 229.162L410.571 276.783L390.35 265.915L382.11 263.952L374.61 256.445L355.879 248.839L354.839 250.076L345.415 261.312L344.675 262.194L365.427 292.137L374.728 293.147L377.334 297.77L377.518 297.854L385.144 301.282L417.667 315.896L433.417 303.875L435.881 301.988C456.257 283.161 465.781 268.015 469.758 256.48C471.862 250.387 472.417 245.309 472.208 241.216C471.561 228.566 463.917 222.684 463.594 222.442H463.594Z"/><path fill="#3F3D56" d="M481.594 234.048H472.472C446.108 234.048 424.735 255.363 424.735 281.658V281.658C416.226 292.153 416.747 305.331 424.735 320.728L398.589 309.857C394.866 308.318 390.597 310.081 389.054 313.794C387.516 317.497 389.268 321.742 392.973 323.292L424.735 336.498V338.957C424.735 346.669 431.004 352.921 438.736 352.921H515.33C523.063 352.921 529.331 346.669 529.331 338.957C535.009 318.18 538.564 298.031 529.331 281.658C529.331 255.363 507.958 234.048 481.594 234.048Z"/><path fill="#F2F2F2" d="M262.976 194.019C264.32 194.019 265.409 192.933 265.409 191.593C265.409 190.253 264.32 189.167 262.976 189.167C261.633 189.167 260.544 190.253 260.544 191.593C260.544 192.933 261.633 194.019 262.976 194.019Z"/><path fill="#F2F2F2" d="M271.49 194.019C272.833 194.019 273.923 192.933 273.923 191.593C273.923 190.253 272.833 189.167 271.49 189.167C270.147 189.167 269.058 190.253 269.058 191.593C269.058 192.933 270.147 194.019 271.49 194.019Z"/><path fill="#F2F2F2" d="M280.004 194.019C281.347 194.019 282.436 192.933 282.436 191.593C282.436 190.253 281.347 189.167 280.004 189.167C278.66 189.167 277.571 190.253 277.571 191.593C277.571 192.933 278.66 194.019 280.004 194.019Z"/><path fill="#fff" d="M201.715 166.141L219.872 166.411C220.375 166.394 220.77 165.972 220.752 165.47C220.736 164.992 220.351 164.608 219.872 164.592L201.715 164.322C201.211 164.339 200.817 164.76 200.834 165.263C200.851 165.741 201.236 166.125 201.715 166.141Z"/><path fill="#fff" d="M223.59 185.183C225.739 186.837 229.192 185.389 229.792 182.835C230.491 179.857 227.884 177.055 224.925 177.12C221.634 177.192 219.308 179.952 218.952 183.059C218.673 185.923 219.844 188.738 222.075 190.564C224.448 192.635 227.698 193.392 230.745 192.584C231.869 192.254 231.391 190.497 230.26 190.83C226.255 191.859 222.147 189.564 220.935 185.62C220.363 183.474 220.904 180.794 222.909 179.567C224.712 178.463 227.264 178.864 227.951 181.075C228.359 182.239 227.743 183.513 226.575 183.92C225.878 184.163 225.106 184.048 224.511 183.612C224.075 183.361 223.519 183.507 223.263 183.938C223.021 184.373 223.165 184.921 223.59 185.183V185.183Z"/><path fill="#fff" d="M242.203 176.972C240.372 179.017 238.732 181.225 237.304 183.568L235.172 177.948C234.76 176.863 232.996 177.333 233.413 178.431C234.319 180.82 235.225 183.209 236.131 185.598C235.087 187.523 234.185 189.522 233.432 191.577C233.028 192.679 234.79 193.154 235.191 192.061C235.717 190.635 236.319 189.238 236.995 187.876C237.825 190.064 238.655 192.252 239.485 194.441C239.897 195.526 241.661 195.055 241.244 193.957C240.206 191.219 239.167 188.48 238.128 185.742C239.642 183.063 241.441 180.553 243.493 178.258C244.274 177.388 242.988 176.097 242.203 176.972Z"/><path fill="#fff" d="M209.808 165.252L211.083 192.524C211.138 193.69 212.962 193.697 212.908 192.524L211.632 165.252C211.578 164.086 209.753 164.08 209.808 165.252V165.252V165.252Z"/><path fill="#F2F2F2" d="M254.808 179.463H250.212C250.201 178.542 250.189 177.621 250.17 176.702C250.146 175.533 248.322 175.529 248.346 176.702C248.364 177.622 248.383 178.542 248.402 179.463H244.465C243.961 179.48 243.567 179.902 243.584 180.404C243.601 180.882 243.986 181.266 244.465 181.282H248.438C248.446 181.669 248.454 182.056 248.462 182.443C248.436 184.233 248.513 186.023 248.692 187.804C249.082 190.664 251.025 193.914 254.346 193.633C255.507 193.535 255.518 191.715 254.346 191.814C251.349 192.067 250.489 188.555 250.376 186.256C250.295 184.601 250.26 182.942 250.236 181.282H254.808C255.311 181.265 255.706 180.843 255.688 180.341C255.671 179.863 255.287 179.479 254.808 179.463Z"/><path fill="#FFB8B8" d="M75.8414 264.203C75.2503 264.205 74.6606 264.261 74.0795 264.369L64.4095 203.315L74.097 144.539C75.4269 136.472 69.9476 128.856 61.8587 127.53C54.5589 126.333 47.4897 130.68 45.2833 137.722V137.722C41.6517 149.312 39.8546 161.396 39.9568 173.538L40.2946 213.622L66.074 275.183C66.7199 280.565 71.6178 284.405 77.0137 283.761C82.4096 283.117 86.2603 278.232 85.6143 272.85C85.0221 267.916 80.8245 264.201 75.8414 264.203V264.203Z"/><path fill="#E6E6E6" d="M58.1314 123.628C45.2468 123.65 34.8072 134.062 34.7859 146.912L39.5292 194.704L39.9549 198.986L40.1738 198.998L56.8301 199.823H56.8362L64.918 200.223L66.3045 200.29L67.8917 194.704L81.477 146.912C81.4632 134.059 71.0191 123.642 58.1314 123.628Z"/><path fill="#2F2E41" d="M58.849 353L51.1868 329.553C51.1868 329.553 37.1393 315.306 55.1578 277.485C55.553 276.648 55.9665 275.805 56.3983 274.944C57.1524 273.433 57.9591 271.885 58.8186 270.298C60.12 267.993 61.4396 265.61 62.9295 263.147L64.2916 263.39L65.5808 263.614L69.9897 264.391H69.9958L133.842 275.611C133.842 275.611 132.668 280.839 132.036 286.449C131.531 291.053 131.367 295.71 132.559 297.681C135.137 302.084 131.653 313.984 131.653 313.984C131.653 313.984 131.847 315.137 132.176 317.174V317.18C132.498 319.163 132.948 321.977 133.459 325.386C133.483 325.616 133.513 325.847 133.55 326.078C134.359 331.597 135.326 338.565 136.189 346.055C136.457 348.33 136.712 350.653 136.955 353L58.849 353H58.849Z"/><path fill="#E6E6E6" d="M40.6509 135.991C42.2542 131.581 45.9999 128.289 50.5884 127.259C53.9352 126.31 57.4184 125.93 60.8917 126.136C71.0594 126.535 68.4957 103.817 78.5638 105.288C78.5638 105.288 88.04 101.915 95.4546 108.095C102.19 113.71 106.834 128.981 108.562 128.112C108.93 127.931 109.812 127.95 111.046 128.114C125.473 130.023 135.855 142.93 134.997 157.42L134.264 169.806C134.264 169.806 139.444 177.583 131.928 191.312L122.458 233.52C122.458 233.52 146.151 280.322 135.228 289.924C124.306 299.526 81.4807 284.554 81.4807 284.554C81.4807 284.554 57.4653 277.15 52.4003 273.941C41.7016 267.162 55.3756 251.706 63.8298 252.434C64.2845 250.636 63.6858 248.736 62.2815 247.521C59.9449 246.033 62.563 242.664 62.76 242.355C62.5348 242.579 60.7612 244.433 59.41 240.53C58.0588 236.627 62.2252 231.714 62.2252 231.714L50.4579 206.445L41.1962 186.483L40.0701 184.18L42.002 171.76L41.8212 171.387C37.7046 162.827 36.7936 153.081 39.2526 143.91C40.1447 140.538 40.7868 137.464 40.6509 135.991L40.6509 135.991Z"/><path fill="#2F2E41" d="M136.955 353H132.893C134.018 350.592 135.131 348.257 136.189 346.055C136.457 348.33 136.712 350.653 136.955 353Z"/><path fill="#FFB8B8" d="M216.692 211.719C216.332 212.186 216.015 212.685 215.745 213.209L161.422 183.456L120.756 139.832C115.174 133.845 105.782 133.504 99.7789 139.071C94.3612 144.094 93.4794 152.329 97.7112 158.381L97.7113 158.381C104.676 168.34 113.156 177.156 122.845 184.509L154.83 208.783L219.417 226.143C224.079 228.929 230.123 227.418 232.915 222.768C235.708 218.119 234.193 212.091 229.531 209.306C225.256 206.752 219.742 207.788 216.692 211.719H216.692Z"/><path fill="#E6E6E6" d="M143.161 199.925L159.288 181.165L160.186 180.116L127.154 135.471C125.727 134.362 124.172 133.427 122.522 132.686L122.518 132.681C110.782 127.361 96.944 132.537 91.6099 144.242C87.132 154.067 90.0131 165.674 98.57 172.282L108.21 178.311L143.017 200.09L143.161 199.925Z"/><path fill="#FFB6B6" d="M114.218 84.8729C105.985 99.8887 87.1048 105.405 72.0489 97.1928C56.9931 88.9811 51.4625 70.1515 59.6962 55.1356C67.9298 40.1198 86.8096 34.604 101.865 42.8157C108.19 46.2651 113.115 51.8001 115.797 58.4729C115.939 58.8275 116.067 59.1822 116.195 59.551C119.2 67.8849 118.48 77.1033 114.218 84.8729V84.8729Z"/><path fill="#2F2E41" d="M118.685 59.551C117.347 55.8201 117.931 57.7636 116.579 54.0469C117.461 57.338 116.067 59.1822 116.195 59.551H79.1993V38.1019C90.0379 33.8177 100.635 30.1719 107.035 38.1019C118.913 38.1024 128.541 47.7052 128.542 59.551L118.685 59.551V59.551Z"/><path fill="#2F2E41" d="M105.57 119.174C105.542 118.777 105.499 118.366 105.442 117.969C104.945 115.055 104.139 112.202 103.038 109.457C101.972 106.464 100.891 103.456 99.8097 100.463C101.202 105.897 100.777 111.635 98.6006 116.805C92.3563 111.954 96.2964 100.86 88.1319 100.86C68.5031 100.86 48.3053 84.9864 48.3053 65.3956C48.3053 45.8189 56.7258 31.1791 76.3545 31.1791C95.9977 31.1791 111.928 40.1445 112.312 59.7212C88.1319 65.3956 110.136 117.189 105.57 119.174V119.174Z"/><path fill="#2F2E41" d="M50.758 62.395C63.327 62.395 73.5161 52.233 73.5161 39.6975C73.5161 27.162 63.327 17 50.758 17C38.1891 17 28 27.162 28 39.6975C28 52.233 38.1891 62.395 50.758 62.395Z"/><path fill="#3F3D56" d="M170.738 129.155C172.256 129.155 173.486 127.901 173.486 126.354C173.486 124.807 172.256 123.553 170.738 123.553C169.221 123.553 167.991 124.807 167.991 126.354C167.991 127.901 169.221 129.155 170.738 129.155Z"/><path fill="#3F3D56" d="M180.23 129.155C181.747 129.155 182.977 127.901 182.977 126.354C182.977 124.807 181.747 123.553 180.23 123.553C178.713 123.553 177.482 124.807 177.482 126.354C177.482 127.901 178.713 129.155 180.23 129.155Z"/><path fill="#3F3D56" d="M189.721 129.155C191.239 129.155 192.469 127.901 192.469 126.354C192.469 124.807 191.239 123.553 189.721 123.553C188.204 123.553 186.974 124.807 186.974 126.354C186.974 127.901 188.204 129.155 189.721 129.155Z"/><path fill="#3F3D56" d="M200.544 128.568C200.46 128.568 200.375 128.535 200.312 128.471L198.458 126.58C198.334 126.454 198.334 126.253 198.458 126.127L200.312 124.237C200.438 124.11 200.643 124.107 200.771 124.232C200.9 124.357 200.902 124.563 200.776 124.691L199.145 126.354L200.776 128.017C200.902 128.145 200.9 128.35 200.771 128.476C200.708 128.537 200.626 128.568 200.544 128.568V128.568Z"/><path fill="#3F3D56" d="M203.659 128.568C203.577 128.568 203.495 128.537 203.432 128.476C203.304 128.35 203.301 128.145 203.427 128.017L205.058 126.354L203.427 124.691C203.301 124.563 203.304 124.357 203.432 124.232C203.56 124.107 203.766 124.109 203.891 124.237L205.745 126.127C205.869 126.253 205.869 126.455 205.745 126.58L203.891 128.471C203.828 128.535 203.744 128.568 203.659 128.568L203.659 128.568Z"/><path fill="#3F3D56" d="M306.706 123.877H303.259C302.866 123.877 302.547 124.195 302.547 124.587V128.028C302.547 128.42 302.866 128.737 303.259 128.737H306.706C307.099 128.737 307.421 128.42 307.421 128.028V124.587C307.421 124.195 307.099 123.877 306.706 123.877Z"/><path fill="#3F3D56" d="M298.259 123.877H294.812C294.418 123.877 294.1 124.195 294.1 124.587V128.028C294.1 128.42 294.418 128.737 294.812 128.737H298.259C298.652 128.737 298.974 128.42 298.974 128.028V124.587C298.974 124.195 298.652 123.877 298.259 123.877Z"/><path fill="#3F3D56" d="M314.666 124.039H311.219C310.826 124.039 310.507 124.357 310.507 124.749V128.19C310.507 128.582 310.826 128.899 311.219 128.899H314.666C315.059 128.899 315.381 128.582 315.381 128.19V124.749C315.381 124.357 315.059 124.039 314.666 124.039Z"/><path fill="#3F3D56" d="M257.394 125.348H227.033C226.552 125.348 226.166 125.737 226.166 126.213C226.166 126.69 226.552 127.078 227.033 127.078H257.394C257.872 127.078 258.262 126.69 258.262 126.213C258.262 125.737 257.872 125.348 257.394 125.348Z"/></g><defs><filter id="filter0_d_24_20" width="587" height="416" x="0" y="0" color-interpolation-filters="sRGB" filterUnits="userSpaceOnUse"><feFlood flood-opacity="0" result="BackgroundImageFix"/><feColorMatrix in="SourceAlpha" result="hardAlpha" type="matrix" values="0 0 0 0 0 0 0 0 0 0 0 0 0 0 0 0 0 0 127 0"/><feOffset dx="12" dy="23"/><feGaussianBlur stdDeviation="20"/><feComposite in2="hardAlpha" operator="out"/><feColorMatrix type="matrix" values="0 0 0 0 0 0 0 0 0 0 0 0 0 0 0 0 0 0 0.25 0"/><feBlend in2="BackgroundImageFix" mode="normal" result="effect1_dropShadow_24_20"/><feBlend in="SourceGraphic" in2="effect1_dropShadow_24_20" mode="normal" result="shape"/></filter><clipPath id="clip0_24_20"><rect width="507" height="336" fill="#fff" transform="translate(28 17)"/></clipPath></defs></svg>