<svg width="177" height="116" viewBox="0 0 177 116" fill="none" xmlns="http://www.w3.org/2000/svg">
<g clip-path="url(#clip0_195_146)">
<path d="M87.59 19.7201C90.5555 19.7201 92.9595 17.3138 92.9595 14.3454C92.9595 11.377 90.5555 8.9707 87.59 8.9707C84.6245 8.9707 82.2205 11.377 82.2205 14.3454C82.2205 17.3138 84.6245 19.7201 87.59 19.7201Z" fill="#FD6584"/>
<path d="M99.6073 11.8004C99.4559 11.3034 99.1626 10.8616 98.7634 10.5293C98.3643 10.1971 97.8769 9.9889 97.361 9.93042C97.349 9.92941 97.3369 9.92941 97.3249 9.93042C97.3104 9.9259 97.2956 9.92253 97.2806 9.92036C95.4828 9.68686 93.4838 10.2545 92.1385 11.4904C91.639 11.942 91.2397 12.4933 90.9661 13.1088C90.7167 12.7679 90.388 12.4929 90.0085 12.3077C89.629 12.1225 89.2101 12.0327 88.7882 12.046C88.2439 12.082 87.7241 12.2852 87.2994 12.6278C86.8747 12.9703 86.566 13.4357 86.4152 13.9603C86.3986 14.0244 86.4032 14.0922 86.4282 14.1535C86.4532 14.2148 86.4973 14.2663 86.5539 14.3005C86.7157 14.439 86.908 14.5369 87.115 14.5863C87.5594 14.681 88.0079 14.7675 88.4564 14.846C89.3332 14.999 90.2146 15.1231 91.1008 15.2184C91.686 15.2808 92.2726 15.3305 92.8604 15.3674C94.0751 15.4439 95.2958 15.462 96.5124 15.4237C97.1157 15.4036 97.6949 15.3835 98.2459 15.1178C98.6474 14.9201 98.9905 14.6211 99.2413 14.2502C99.4775 13.8934 99.6326 13.4892 99.6958 13.066C99.7591 12.6427 99.7289 12.2107 99.6073 11.8004Z" fill="#0F172A"/>
<path d="M88.5609 19.6308C88.5508 19.4056 88.5129 19.1825 88.4483 18.9665C88.2962 18.4696 88.0024 18.0279 87.603 17.6957C87.2036 17.3635 86.716 17.1552 86.2 17.0965C86.1887 17.0955 86.1772 17.0955 86.1658 17.0965C86.1507 17.0922 86.1352 17.0888 86.1196 17.0864C85.1246 16.9644 84.1149 17.0683 83.1654 17.3904C81.7054 17.8795 80.4244 18.8659 79.8071 20.2749C79.5574 19.9337 79.2284 19.6586 78.8485 19.4734C78.4687 19.2882 78.0494 19.1985 77.6271 19.2121C77.0829 19.2481 76.563 19.4513 76.1384 19.7938C75.7137 20.1364 75.405 20.6017 75.2542 21.1264C75.2385 21.1905 75.2435 21.2579 75.2684 21.319C75.2934 21.3801 75.3369 21.4318 75.3929 21.4666C75.5549 21.6047 75.7471 21.7026 75.954 21.7524C76.4004 21.847 76.8469 21.9336 77.2973 22.0121C78.1741 22.1651 79.055 22.2892 79.9398 22.3845C81.7374 22.5777 83.5463 22.6463 85.3534 22.5898C85.9547 22.5697 86.5359 22.5495 87.0869 22.2838C87.4878 22.0861 87.8302 21.7871 88.0803 21.4163C88.4328 20.8904 88.6018 20.2627 88.5609 19.6308Z" fill="#0F172A"/>
<path d="M158.493 84.8477C158.57 88.5123 158.065 92.1659 156.997 95.6718C156.959 95.7991 156.914 95.9265 156.869 96.0538H134.838C135.153 94.5014 135.653 92.9925 136.327 91.5594C138.16 87.6642 141.154 84.3308 144.11 81.0199C148.181 76.458 152.155 71.9336 152.783 66.001C154.397 68.4634 155.685 71.1248 156.615 73.9187C155.476 74.3408 154.431 74.9821 153.539 75.8063C153.292 76.0385 153.03 76.3756 153.157 76.6977C153.277 76.9674 153.606 77.0573 153.898 77.1172C154.602 77.252 155.305 77.3869 156.009 77.5142C156.562 77.6266 157.124 77.7315 157.685 77.8363C158.178 80.1421 158.449 82.49 158.493 84.8477Z" fill="#0F172A"/>
<path d="M177 82.4207C173.468 84.5705 171.223 87.8964 169.389 91.6193C167.794 91.9833 166.321 92.7579 165.116 93.8665C164.862 94.0988 164.6 94.4358 164.734 94.7579C164.847 95.0276 165.184 95.1175 165.475 95.1774C166.171 95.3123 166.882 95.4471 167.578 95.5745C167.511 95.7318 167.443 95.8965 167.376 96.0539H144.028C145.087 94.623 146.261 93.2803 147.537 92.0388C147.814 91.7616 148.099 91.4995 148.39 91.2298C151.367 88.5374 154.784 86.3784 158.493 84.8477C164.336 82.4028 170.725 81.5649 177 82.4207Z" fill="#0F172A"/>
<path d="M147.919 96.0539H127.13C127.016 94.3875 127.026 92.715 127.16 91.05C127.99 80.7652 133.581 70.9674 142.015 65.0347C140.937 68.8774 141.491 72.6977 142.613 76.533C142.456 76.5854 142.299 76.6304 142.157 76.6903C141.018 77.1124 139.973 77.7537 139.081 78.5779C138.834 78.8102 138.572 79.1472 138.699 79.4693C138.812 79.739 139.148 79.8289 139.44 79.8888C140.144 80.0237 140.847 80.1585 141.543 80.2858C142.104 80.3982 142.666 80.5031 143.227 80.6154C143.489 80.6604 143.751 80.7128 144.013 80.7652C144.05 80.8551 144.072 80.9375 144.11 81.0199C145.427 84.6529 146.864 88.3159 147.537 92.0388C147.704 92.9731 147.819 93.9158 147.882 94.8628C147.904 95.2598 147.919 95.6568 147.919 96.0539Z" fill="#0F172A"/>
<path d="M34.6158 84.8477C34.6929 88.5123 34.1877 92.1659 33.1191 95.6718C33.0816 95.7991 33.0367 95.9265 32.9918 96.0538H10.9603C11.2753 94.5014 11.7753 92.9925 12.4496 91.5594C14.283 87.6642 17.2764 84.3308 20.2324 81.0199C24.3035 76.458 28.2772 71.9336 28.9059 66.001C30.5195 68.4634 31.8074 71.1248 32.7374 73.9187C31.5989 74.3408 30.554 74.9821 29.6617 75.8063C29.4147 76.0385 29.1528 76.3756 29.28 76.6977C29.3997 76.9674 29.729 77.0573 30.0209 77.1172C30.7243 77.252 31.4278 77.3869 32.1312 77.5142C32.685 77.6266 33.2463 77.7315 33.8075 77.8363C34.3009 80.1421 34.5715 82.49 34.6158 84.8477Z" fill="#0F172A"/>
<path d="M53.1225 82.4207C49.5903 84.5705 47.3452 87.8964 45.5118 91.6193C43.9163 91.9833 42.4434 92.7579 41.2387 93.8665C40.9842 94.0988 40.7223 94.4358 40.857 94.7579C40.9693 95.0276 41.3061 95.1175 41.5979 95.1774C42.2939 95.3123 43.0048 95.4471 43.7008 95.5745C43.6334 95.7318 43.5661 95.8965 43.4987 96.0539H20.1501C21.2101 94.623 22.3838 93.2803 23.6599 92.0388C23.9368 91.7616 24.2212 91.4995 24.5131 91.2298C27.4894 88.5374 30.907 86.3784 34.6158 84.8477C40.4585 82.4028 46.8478 81.5649 53.1225 82.4207Z" fill="#0F172A"/>
<path d="M24.0416 96.0539H3.25232C3.1388 94.3875 3.14881 92.715 3.28229 91.05C4.11295 80.7652 9.70312 70.9674 18.1371 65.0347C17.0594 68.8774 17.6132 72.6977 18.7357 76.533C18.5786 76.5854 18.4214 76.6304 18.2793 76.6903C17.1407 77.1124 16.0958 77.7537 15.2035 78.5779C14.9566 78.8102 14.6947 79.1472 14.8219 79.4693C14.9341 79.739 15.2709 79.8289 15.5627 79.8888C16.2662 80.0237 16.9696 80.1585 17.6656 80.2858C18.2269 80.3982 18.7881 80.5031 19.3494 80.6154C19.6113 80.6604 19.8732 80.7128 20.1351 80.7652C20.1725 80.8551 20.195 80.9375 20.2324 81.0199C21.5495 84.6529 22.9864 88.3159 23.6599 92.0388C23.8266 92.9731 23.9415 93.9158 24.0042 94.8628C24.0266 95.2598 24.0416 95.6568 24.0416 96.0539Z" fill="#0F172A"/>
<path d="M101.437 87.3173L120.012 88.9679L120.211 88.986V9.64805C120.145 9.60175 120.079 9.55546 120.012 9.50916C116.141 6.79868 111.953 4.57196 107.542 2.87854L106.593 15.9828L106.506 17.1825L105.567 30.178L105.278 34.1757L101.471 86.8543L101.437 87.3173Z" fill="#0F172A"/>
<path d="M55.4995 8.17047C55.3668 8.25501 55.234 8.33956 55.1013 8.42812V88.9859L55.4995 88.9497L73.874 87.3172L73.8398 86.8542L70.033 34.1756L69.7434 30.1779L68.8042 17.1824L68.7178 15.9827L67.7223 2.24036C63.4296 3.7298 59.327 5.72022 55.4995 8.17047Z" fill="#0F172A"/>
<path d="M55.1013 8.42819C54.8339 8.6013 54.5664 8.77844 54.303 8.95759V90.085C54.303 92.112 55.5035 93.811 57.1083 94.2437C57.3706 94.3148 57.6411 94.3507 57.9127 94.3504H117.599C117.87 94.3508 118.14 94.3149 118.402 94.2437C118.998 94.0781 119.539 93.7539 119.966 93.3057C120.781 92.4336 121.227 91.2791 121.209 90.085V10.3687C120.879 10.1251 120.547 9.88354 120.211 9.64803C120.145 9.60173 120.079 9.55544 120.012 9.50914V90.085C120.013 90.3461 119.982 90.6063 119.92 90.86C119.636 92.0577 118.701 92.9353 117.599 92.9353H57.9127C56.5814 92.9353 55.4995 91.6571 55.4995 90.085V8.17053C55.3668 8.25508 55.2341 8.33962 55.1013 8.42819Z" fill="#0F172A"/>
<path d="M120.611 15.9835H54.9008V17.183H120.611V15.9835Z" fill="#0F172A"/>
<path d="M100.486 0.682449C100.087 0.583815 99.6892 0.491219 99.287 0.404663V32.976H100.486V0.682449Z" fill="#0F172A"/>
<path d="M76.2249 0C75.8247 0.0744787 75.4245 0.150971 75.0263 0.233501V32.9759H76.2249V0Z" fill="#0F172A"/>
<path d="M42.0178 92.2509C42.0175 92.9393 42.1492 93.6212 42.4059 94.2598C42.5045 94.5075 42.6221 94.7471 42.7578 94.9764C42.9331 95.2756 43.1364 95.5573 43.3651 95.8179C43.8703 96.3941 44.4926 96.8558 45.1904 97.1721C45.8881 97.4883 46.6453 97.6518 47.4113 97.6516H126.104C127.534 97.6516 128.906 97.0829 129.917 96.0704C130.929 95.058 131.497 93.6848 131.497 92.2529C131.497 90.8211 130.929 89.4479 129.917 88.4355C128.906 87.423 127.534 86.8542 126.104 86.8542H47.4113C45.9816 86.8557 44.6109 87.4246 43.5997 88.4363C42.5886 89.448 42.0197 90.8199 42.0178 92.2509Z" fill="#0F172A"/>
<path d="M54.9008 34.1761L120.211 34.1761V30.1778L54.9008 30.1778V34.1761Z" fill="#0F172A"/>
<path d="M90.3521 31.1774H84.7598C84.7598 30.5941 84.9912 30.0348 85.4033 29.6224C85.8153 29.21 86.3741 28.9783 86.9568 28.9783H88.1551C88.4436 28.9783 88.7293 29.0351 88.9959 29.1457C89.2624 29.2562 89.5046 29.4182 89.7086 29.6224C89.9126 29.8266 90.0744 30.069 90.1849 30.3358C90.2953 30.6026 90.3521 30.8886 90.3521 31.1774H90.3521Z" fill="#0F172A"/>
<path d="M0 95.3347C1.74701 97.4067 3.63659 99.354 5.65492 101.162H167.858C169.876 99.354 171.766 97.4067 173.513 95.3347H0Z" fill="#3F3D56"/>
<path d="M79.7743 75.8475V96.4922H94.2233V75.8475C94.2236 75.699 94.1762 75.5544 94.0883 75.4348C94.0003 75.3153 93.8764 75.2271 93.7346 75.1833C93.6678 75.1612 93.5979 75.1503 93.5275 75.151H80.4721C80.3806 75.1509 80.2899 75.1687 80.2053 75.2037C80.1207 75.2386 80.0438 75.2898 79.979 75.3545C79.9142 75.4192 79.8627 75.496 79.8276 75.5806C79.7925 75.6652 79.7744 75.7559 79.7743 75.8475ZM85.4131 82.9411C85.417 82.5342 85.5811 82.1452 85.87 81.8588C86.1588 81.5723 86.549 81.4117 86.9556 81.4117C87.3622 81.4117 87.7523 81.5723 88.0411 81.8588C88.33 82.1452 88.4942 82.5342 88.498 82.9411V85.3365C88.4959 85.7446 88.3325 86.1353 88.0435 86.4231C87.7544 86.711 87.3633 86.8726 86.9556 86.8726C86.5478 86.8726 86.1567 86.711 85.8677 86.4231C85.5786 86.1353 85.4152 85.7446 85.4131 85.3365V82.9411Z" fill="#2F2E41"/>
<path d="M79.73 95.8319V97.8227C79.7304 97.9258 79.7713 98.0247 79.844 98.0978C79.9166 98.1709 80.0151 98.2124 80.1182 98.2132H93.8794C93.9825 98.2127 94.0813 98.1713 94.154 98.0981C94.2267 98.025 94.2676 97.9259 94.2675 97.8227V95.8319H79.73Z" fill="#3F3D56"/>
<path d="M57.0439 44.7436V82.4379C57.0443 82.9182 57.2351 83.3788 57.5745 83.7185C57.9138 84.0581 58.3739 84.2491 58.8538 84.2495H114.659C115.139 84.2491 115.599 84.0581 115.938 83.7185C116.278 83.3788 116.469 82.9182 116.469 82.4379V44.7436C116.468 44.2636 116.277 43.8037 115.937 43.4645C115.598 43.1254 115.139 42.9346 114.659 42.934H58.8538C58.3744 42.9346 57.9147 43.1254 57.5754 43.4645C57.2362 43.8037 57.0451 44.2636 57.0439 44.7436Z" fill="#3F3D56"/>
<path d="M58.3531 45.2125V81.9728C58.3536 82.2295 58.4556 82.4755 58.637 82.657C58.8183 82.8384 59.064 82.9406 59.3204 82.941H114.195C114.451 82.9406 114.697 82.8384 114.878 82.657C115.059 82.4755 115.161 82.2295 115.162 81.9728V45.2125C115.162 44.9556 115.06 44.7091 114.879 44.5272C114.697 44.3453 114.451 44.2429 114.195 44.2423H59.3204C59.0637 44.2429 58.8177 44.3453 58.6364 44.5272C58.455 44.7091 58.3532 44.9556 58.3531 45.2125Z" fill="#2E69C2"/>
<path d="M69.5423 98.6822C69.5981 98.7523 69.6691 98.8088 69.7499 98.8475C69.8307 98.8862 69.9193 98.9061 70.0088 98.9056H102.655C102.745 98.9055 102.833 98.8855 102.913 98.847C102.994 98.8085 103.065 98.7525 103.121 98.6831C103.177 98.6137 103.218 98.5326 103.239 98.4458C103.26 98.3589 103.261 98.2685 103.243 98.181L102.736 95.7715C102.715 95.6732 102.67 95.5818 102.604 95.5055C102.539 95.4292 102.456 95.3705 102.362 95.3347C102.294 95.308 102.222 95.2944 102.149 95.2944H70.5136C70.4407 95.2944 70.3684 95.308 70.3004 95.3347C70.2066 95.3705 70.1233 95.4292 70.058 95.5055C69.9926 95.5818 69.9474 95.6732 69.9264 95.7715L69.4196 98.181C69.4016 98.2684 69.4032 98.3587 69.4245 98.4454C69.4457 98.5321 69.4859 98.613 69.5423 98.6822Z" fill="#2F2E41"/>
<path d="M101.009 96.3323H101.819C101.873 96.3323 101.917 96.2883 101.917 96.234V95.8267C101.917 95.7724 101.873 95.7284 101.819 95.7284H101.009C100.955 95.7284 100.911 95.7724 100.911 95.8267V96.234C100.911 96.2883 100.955 96.3323 101.009 96.3323Z" fill="#3F3D56"/>
<path d="M98.9984 96.3323H99.8076C99.8618 96.3323 99.9058 96.2883 99.9058 96.234V95.8267C99.9058 95.7724 99.8618 95.7284 99.8076 95.7284H98.9984C98.9442 95.7284 98.9003 95.7724 98.9003 95.8267V96.234C98.9003 96.2883 98.9442 96.3323 98.9984 96.3323Z" fill="#3F3D56"/>
<path d="M96.9874 96.3323H97.7966C97.8508 96.3323 97.8948 96.2883 97.8948 96.234V95.8267C97.8948 95.7724 97.8508 95.7284 97.7966 95.7284H96.9874C96.9332 95.7284 96.8893 95.7724 96.8893 95.8267V96.234C96.8893 96.2883 96.9332 96.3323 96.9874 96.3323Z" fill="#3F3D56"/>
<path d="M94.9765 96.3323H95.7856C95.8398 96.3323 95.8838 96.2883 95.8838 96.234V95.8267C95.8838 95.7724 95.8398 95.7284 95.7856 95.7284H94.9765C94.9222 95.7284 94.8783 95.7724 94.8783 95.8267V96.234C94.8783 96.2883 94.9222 96.3323 94.9765 96.3323Z" fill="#3F3D56"/>
<path d="M92.9654 96.3323H93.7746C93.8288 96.3323 93.8727 96.2883 93.8727 96.234V95.8267C93.8727 95.7724 93.8288 95.7284 93.7746 95.7284H92.9654C92.9112 95.7284 92.8672 95.7724 92.8672 95.8267V96.234C92.8672 96.2883 92.9112 96.3323 92.9654 96.3323Z" fill="#3F3D56"/>
<path d="M90.9544 96.3323H91.7636C91.8178 96.3323 91.8618 96.2883 91.8618 96.234V95.8267C91.8618 95.7724 91.8178 95.7284 91.7636 95.7284H90.9544C90.9002 95.7284 90.8563 95.7724 90.8563 95.8267V96.234C90.8563 96.2883 90.9002 96.3323 90.9544 96.3323Z" fill="#3F3D56"/>
<path d="M88.9434 96.3323H89.7526C89.8068 96.3323 89.8508 96.2883 89.8508 96.234V95.8267C89.8508 95.7724 89.8068 95.7284 89.7526 95.7284H88.9434C88.8892 95.7284 88.8453 95.7724 88.8453 95.8267V96.234C88.8453 96.2883 88.8892 96.3323 88.9434 96.3323Z" fill="#3F3D56"/>
<path d="M86.9325 96.3323H87.7416C87.7958 96.3323 87.8398 96.2883 87.8398 96.234V95.8267C87.8398 95.7724 87.7958 95.7284 87.7416 95.7284H86.9325C86.8782 95.7284 86.8343 95.7724 86.8343 95.8267V96.234C86.8343 96.2883 86.8782 96.3323 86.9325 96.3323Z" fill="#3F3D56"/>
<path d="M84.9215 96.3323H85.7306C85.7848 96.3323 85.8288 96.2883 85.8288 96.234V95.8267C85.8288 95.7724 85.7848 95.7284 85.7306 95.7284H84.9215C84.8672 95.7284 84.8233 95.7724 84.8233 95.8267V96.234C84.8233 96.2883 84.8672 96.3323 84.9215 96.3323Z" fill="#3F3D56"/>
<path d="M82.9104 96.3323H83.7196C83.7738 96.3323 83.8177 96.2883 83.8177 96.234V95.8267C83.8177 95.7724 83.7738 95.7284 83.7196 95.7284H82.9104C82.8562 95.7284 82.8123 95.7724 82.8123 95.8267V96.234C82.8123 96.2883 82.8562 96.3323 82.9104 96.3323Z" fill="#3F3D56"/>
<path d="M80.8994 96.3323H81.7086C81.7628 96.3323 81.8068 96.2883 81.8068 96.234V95.8267C81.8068 95.7724 81.7628 95.7284 81.7086 95.7284H80.8994C80.8452 95.7284 80.8013 95.7724 80.8013 95.8267V96.234C80.8013 96.2883 80.8452 96.3323 80.8994 96.3323Z" fill="#3F3D56"/>
<path d="M78.8884 96.3323H79.6976C79.7518 96.3323 79.7958 96.2883 79.7958 96.234V95.8267C79.7958 95.7724 79.7518 95.7284 79.6976 95.7284H78.8884C78.8342 95.7284 78.7903 95.7724 78.7903 95.8267V96.234C78.7903 96.2883 78.8342 96.3323 78.8884 96.3323Z" fill="#3F3D56"/>
<path d="M76.8775 96.3323H77.6866C77.7408 96.3323 77.7848 96.2883 77.7848 96.234V95.8267C77.7848 95.7724 77.7408 95.7284 77.6866 95.7284H76.8775C76.8232 95.7284 76.7793 95.7724 76.7793 95.8267V96.234C76.7793 96.2883 76.8232 96.3323 76.8775 96.3323Z" fill="#3F3D56"/>
<path d="M74.8665 96.3323H75.6756C75.7298 96.3323 75.7738 96.2883 75.7738 96.234V95.8267C75.7738 95.7724 75.7298 95.7284 75.6756 95.7284H74.8665C74.8123 95.7284 74.7683 95.7724 74.7683 95.8267V96.234C74.7683 96.2883 74.8123 96.3323 74.8665 96.3323Z" fill="#3F3D56"/>
<path d="M72.8555 96.3323H73.6646C73.7189 96.3323 73.7628 96.2883 73.7628 96.234V95.8267C73.7628 95.7724 73.7189 95.7284 73.6646 95.7284H72.8555C72.8013 95.7284 72.7573 95.7724 72.7573 95.8267V96.234C72.7573 96.2883 72.8013 96.3323 72.8555 96.3323Z" fill="#3F3D56"/>
<path d="M70.8444 96.3323H71.6536C71.7078 96.3323 71.7518 96.2883 71.7518 96.234V95.8267C71.7518 95.7724 71.7078 95.7284 71.6536 95.7284H70.8444C70.7902 95.7284 70.7463 95.7724 70.7463 95.8267V96.234C70.7463 96.2883 70.7902 96.3323 70.8444 96.3323Z" fill="#3F3D56"/>
<path d="M101.033 97.3387H101.842C101.897 97.3387 101.941 97.2948 101.941 97.2405V96.8331C101.941 96.7789 101.897 96.7349 101.842 96.7349H101.033C100.979 96.7349 100.935 96.7789 100.935 96.8331V97.2405C100.935 97.2948 100.979 97.3387 101.033 97.3387Z" fill="#3F3D56"/>
<path d="M99.0222 97.3387H99.8313C99.8855 97.3387 99.9295 97.2948 99.9295 97.2405V96.8331C99.9295 96.7789 99.8855 96.7349 99.8313 96.7349H99.0222C98.968 96.7349 98.924 96.7789 98.924 96.8331V97.2405C98.924 97.2948 98.968 97.3387 99.0222 97.3387Z" fill="#3F3D56"/>
<path d="M97.0112 97.3387H97.8203C97.8746 97.3387 97.9185 97.2948 97.9185 97.2405V96.8331C97.9185 96.7789 97.8746 96.7349 97.8203 96.7349H97.0112C96.957 96.7349 96.913 96.7789 96.913 96.8331V97.2405C96.913 97.2948 96.957 97.3387 97.0112 97.3387Z" fill="#3F3D56"/>
<path d="M95.0002 97.3387H95.8094C95.8636 97.3387 95.9075 97.2948 95.9075 97.2405V96.8331C95.9075 96.7789 95.8636 96.7349 95.8094 96.7349H95.0002C94.946 96.7349 94.902 96.7789 94.902 96.8331V97.2405C94.902 97.2948 94.946 97.3387 95.0002 97.3387Z" fill="#3F3D56"/>
<path d="M92.9892 97.3387H93.7984C93.8526 97.3387 93.8965 97.2948 93.8965 97.2405V96.8331C93.8965 96.7789 93.8526 96.7349 93.7984 96.7349H92.9892C92.935 96.7349 92.891 96.7789 92.891 96.8331V97.2405C92.891 97.2948 92.935 97.3387 92.9892 97.3387Z" fill="#3F3D56"/>
<path d="M90.9782 97.3387H91.7874C91.8416 97.3387 91.8856 97.2948 91.8856 97.2405V96.8331C91.8856 96.7789 91.8416 96.7349 91.7874 96.7349H90.9782C90.924 96.7349 90.8801 96.7789 90.8801 96.8331V97.2405C90.8801 97.2948 90.924 97.3387 90.9782 97.3387Z" fill="#3F3D56"/>
<path d="M88.9672 97.3387H89.7763C89.8306 97.3387 89.8745 97.2948 89.8745 97.2405V96.8331C89.8745 96.7789 89.8306 96.7349 89.7763 96.7349H88.9672C88.913 96.7349 88.869 96.7789 88.869 96.8331V97.2405C88.869 97.2948 88.913 97.3387 88.9672 97.3387Z" fill="#3F3D56"/>
<path d="M86.9562 97.3387H87.7653C87.8196 97.3387 87.8635 97.2948 87.8635 97.2405V96.8331C87.8635 96.7789 87.8196 96.7349 87.7653 96.7349H86.9562C86.902 96.7349 86.858 96.7789 86.858 96.8331V97.2405C86.858 97.2948 86.902 97.3387 86.9562 97.3387Z" fill="#3F3D56"/>
<path d="M84.9452 97.3387H85.7544C85.8086 97.3387 85.8525 97.2948 85.8525 97.2405V96.8331C85.8525 96.7789 85.8086 96.7349 85.7544 96.7349H84.9452C84.891 96.7349 84.847 96.7789 84.847 96.8331V97.2405C84.847 97.2948 84.891 97.3387 84.9452 97.3387Z" fill="#3F3D56"/>
<path d="M82.9342 97.3387H83.7434C83.7976 97.3387 83.8416 97.2948 83.8416 97.2405V96.8331C83.8416 96.7789 83.7976 96.7349 83.7434 96.7349H82.9342C82.88 96.7349 82.8361 96.7789 82.8361 96.8331V97.2405C82.8361 97.2948 82.88 97.3387 82.9342 97.3387Z" fill="#3F3D56"/>
<path d="M80.9232 97.3387H81.7324C81.7866 97.3387 81.8306 97.2948 81.8306 97.2405V96.8331C81.8306 96.7789 81.7866 96.7349 81.7324 96.7349H80.9232C80.869 96.7349 80.8251 96.7789 80.8251 96.8331V97.2405C80.8251 97.2948 80.869 97.3387 80.9232 97.3387Z" fill="#3F3D56"/>
<path d="M78.9122 97.3387H79.7214C79.7756 97.3387 79.8196 97.2948 79.8196 97.2405V96.8331C79.8196 96.7789 79.7756 96.7349 79.7214 96.7349H78.9122C78.858 96.7349 78.8141 96.7789 78.8141 96.8331V97.2405C78.8141 97.2948 78.858 97.3387 78.9122 97.3387Z" fill="#3F3D56"/>
<path d="M76.9012 97.3387H77.7104C77.7646 97.3387 77.8085 97.2948 77.8085 97.2405V96.8331C77.8085 96.7789 77.7646 96.7349 77.7104 96.7349H76.9012C76.847 96.7349 76.803 96.7789 76.803 96.8331V97.2405C76.803 97.2948 76.847 97.3387 76.9012 97.3387Z" fill="#3F3D56"/>
<path d="M74.8902 97.3387H75.6994C75.7536 97.3387 75.7975 97.2948 75.7975 97.2405V96.8331C75.7975 96.7789 75.7536 96.7349 75.6994 96.7349H74.8902C74.836 96.7349 74.792 96.7789 74.792 96.8331V97.2405C74.792 97.2948 74.836 97.3387 74.8902 97.3387Z" fill="#3F3D56"/>
<path d="M72.8792 97.3387H73.6884C73.7426 97.3387 73.7866 97.2948 73.7866 97.2405V96.8331C73.7866 96.7789 73.7426 96.7349 73.6884 96.7349H72.8792C72.825 96.7349 72.7811 96.7789 72.7811 96.8331V97.2405C72.7811 97.2948 72.825 97.3387 72.8792 97.3387Z" fill="#3F3D56"/>
<path d="M70.8682 97.3387H71.6774C71.7316 97.3387 71.7756 97.2948 71.7756 97.2405V96.8331C71.7756 96.7789 71.7316 96.7349 71.6774 96.7349H70.8682C70.814 96.7349 70.7701 96.7789 70.7701 96.8331V97.2405C70.7701 97.2948 70.814 97.3387 70.8682 97.3387Z" fill="#3F3D56"/>
<path d="M84.3419 98.5465H92.1895C92.2438 98.5465 92.2877 98.5025 92.2877 98.4482V98.0409C92.2877 97.9866 92.2438 97.9426 92.1895 97.9426H84.3419C84.2877 97.9426 84.2437 97.9866 84.2437 98.0409V98.4482C84.2437 98.5025 84.2877 98.5465 84.3419 98.5465Z" fill="#3F3D56"/>
<path d="M62.0779 49.3062H113.423C113.477 49.3051 113.528 49.283 113.565 49.2448C113.602 49.2066 113.623 49.1553 113.623 49.1018C113.623 49.0484 113.602 48.9971 113.565 48.9589C113.528 48.9207 113.477 48.8986 113.423 48.8975H62.0779C62.0245 48.8986 61.9737 48.9207 61.9364 48.9589C61.899 48.9971 61.8781 49.0484 61.8781 49.1018C61.8781 49.1553 61.899 49.2066 61.9364 49.2448C61.9737 49.283 62.0245 49.3051 62.0779 49.3062Z" fill="#3F3D56"/>
<path d="M109.928 47.854C110.589 47.854 111.125 47.3058 111.125 46.6295C111.125 45.9532 110.589 45.405 109.928 45.405C109.267 45.405 108.732 45.9532 108.732 46.6295C108.732 47.3058 109.267 47.854 109.928 47.854Z" fill="#3F3D56"/>
<path d="M105.794 47.854C106.455 47.854 106.991 47.3058 106.991 46.6295C106.991 45.9532 106.455 45.405 105.794 45.405C105.133 45.405 104.598 45.9532 104.598 46.6295C104.598 47.3058 105.133 47.854 105.794 47.854Z" fill="#3F3D56"/>
<path d="M101.661 47.854C102.321 47.854 102.857 47.3058 102.857 46.6295C102.857 45.9532 102.321 45.405 101.661 45.405C101 45.405 100.464 45.9532 100.464 46.6295C100.464 47.3058 101 47.854 101.661 47.854Z" fill="#3F3D56"/>
<path d="M64.3479 45.9312C64.3478 45.9602 64.3533 45.9888 64.3643 46.0156C64.3752 46.0424 64.3913 46.0668 64.4117 46.0874C64.432 46.1079 64.4562 46.1243 64.4829 46.1355C64.5096 46.1467 64.5382 46.1525 64.5671 46.1526H67.5032C67.5612 46.1513 67.6164 46.1272 67.657 46.0857C67.6975 46.0441 67.7203 45.9883 67.7203 45.9302C67.7203 45.8721 67.6975 45.8163 67.657 45.7747C67.6164 45.7332 67.5612 45.7091 67.5032 45.7078H64.5671C64.5085 45.7085 64.4525 45.7324 64.4115 45.7742C64.3704 45.8161 64.3475 45.8725 64.3479 45.9312Z" fill="#3F3D56"/>
<path d="M64.3479 46.7665C64.3478 46.7955 64.3533 46.8242 64.3643 46.851C64.3752 46.8778 64.3913 46.9021 64.4117 46.9227C64.432 46.9433 64.4562 46.9596 64.4829 46.9708C64.5096 46.982 64.5382 46.9878 64.5671 46.9879H67.5032C67.5612 46.9867 67.6165 46.9627 67.6571 46.9211C67.6978 46.8795 67.7205 46.8237 67.7205 46.7655C67.7205 46.7074 67.6978 46.6515 67.6571 46.6099C67.6165 46.5684 67.5612 46.5444 67.5032 46.5431H64.5671C64.5085 46.5438 64.4525 46.5677 64.4115 46.6096C64.3704 46.6514 64.3475 46.7079 64.3479 46.7665Z" fill="#3F3D56"/>
<path d="M64.3479 47.6C64.3475 47.6586 64.3704 47.7151 64.4115 47.7569C64.4525 47.7988 64.5085 47.8227 64.5671 47.8234H67.5032C67.5612 47.822 67.6164 47.798 67.657 47.7565C67.6975 47.7149 67.7203 47.6591 67.7203 47.601C67.7203 47.5429 67.6975 47.4871 67.657 47.4455C67.6164 47.4039 67.5612 47.3799 67.5032 47.3785H64.5671C64.5382 47.3787 64.5096 47.3845 64.4829 47.3957C64.4562 47.4069 64.432 47.4232 64.4117 47.4438C64.3913 47.4644 64.3752 47.4887 64.3643 47.5155C64.3533 47.5423 64.3478 47.571 64.3479 47.6Z" fill="#3F3D56"/>
<path d="M65.2553 54.0562H64.2002C63.8804 54.0562 63.6211 54.3157 63.6211 54.6359C63.6211 54.956 63.8804 55.2156 64.2002 55.2156H65.2553C65.5751 55.2156 65.8344 54.956 65.8344 54.6359C65.8344 54.3157 65.5751 54.0562 65.2553 54.0562Z" fill="#0F172A"/>
<path d="M77.3213 54.0562H76.2663C75.9464 54.0562 75.6871 54.3157 75.6871 54.6359C75.6871 54.956 75.9464 55.2156 76.2663 55.2156H77.3213C77.6412 55.2156 77.9005 54.956 77.9005 54.6359C77.9005 54.3157 77.6412 54.0562 77.3213 54.0562Z" fill="#0F172A"/>
<path d="M80.74 54.0562H79.685C79.3651 54.0562 79.1058 54.3157 79.1058 54.6359C79.1058 54.956 79.3651 55.2156 79.685 55.2156H80.74C81.0599 55.2156 81.3192 54.956 81.3192 54.6359C81.3192 54.3157 81.0599 54.0562 80.74 54.0562Z" fill="#0F172A"/>
<path d="M74.0392 53.9595H67.4822C67.1624 53.9595 66.9031 54.219 66.9031 54.5392C66.9031 54.8594 67.1624 55.1189 67.4822 55.1189H74.0392C74.3591 55.1189 74.6184 54.8594 74.6184 54.5392C74.6184 54.219 74.3591 53.9595 74.0392 53.9595Z" fill="#0F172A"/>
<path d="M90.1273 53.9595H83.5702C83.2504 53.9595 82.9911 54.219 82.9911 54.5392C82.9911 54.8594 83.2504 55.1189 83.5702 55.1189H90.1273C90.4471 55.1189 90.7064 54.8594 90.7064 54.5392C90.7064 54.219 90.4471 53.9595 90.1273 53.9595Z" fill="#0F172A"/>
<path d="M68.4729 56.6729H67.4179C67.098 56.6729 66.8387 56.9324 66.8387 57.2526C66.8387 57.5727 67.098 57.8323 67.4179 57.8323H68.4729C68.7928 57.8323 69.0521 57.5727 69.0521 57.2526C69.0521 56.9324 68.7928 56.6729 68.4729 56.6729Z" fill="#0F172A"/>
<path d="M80.5389 56.6729H79.4839C79.164 56.6729 78.9047 56.9324 78.9047 57.2526C78.9047 57.5727 79.164 57.8323 79.4839 57.8323H80.5389C80.8587 57.8323 81.118 57.5727 81.118 57.2526C81.118 56.9324 80.8587 56.6729 80.5389 56.6729Z" fill="#0F172A"/>
<path d="M83.9576 56.6729H82.9026C82.5827 56.6729 82.3234 56.9324 82.3234 57.2526C82.3234 57.5727 82.5827 57.8323 82.9026 57.8323H83.9576C84.2774 57.8323 84.5367 57.5727 84.5367 57.2526C84.5367 56.9324 84.2774 56.6729 83.9576 56.6729Z" fill="#0F172A"/>
<path d="M77.2569 56.5763H70.6999C70.38 56.5763 70.1207 56.8358 70.1207 57.156C70.1207 57.4762 70.38 57.7357 70.6999 57.7357H77.2569C77.5768 57.7357 77.8361 57.4762 77.8361 57.156C77.8361 56.8358 77.5768 56.5763 77.2569 56.5763Z" fill="#0F172A"/>
<path d="M93.3448 56.5763H86.7878C86.468 56.5763 86.2087 56.8358 86.2087 57.156C86.2087 57.4762 86.468 57.7357 86.7878 57.7357H93.3448C93.6647 57.7357 93.924 57.4762 93.924 57.156C93.924 56.8358 93.6647 56.5763 93.3448 56.5763Z" fill="#0F172A"/>
<path d="M71.6905 59.2897H70.6355C70.3156 59.2897 70.0563 59.5492 70.0563 59.8694C70.0563 60.1896 70.3156 60.4491 70.6355 60.4491H71.6905C72.0104 60.4491 72.2697 60.1896 72.2697 59.8694C72.2697 59.5492 72.0104 59.2897 71.6905 59.2897Z" fill="#0F172A"/>
<path d="M83.7565 59.2897H82.7015C82.3816 59.2897 82.1223 59.5492 82.1223 59.8694C82.1223 60.1896 82.3816 60.4491 82.7015 60.4491H83.7565C84.0763 60.4491 84.3356 60.1896 84.3356 59.8694C84.3356 59.5492 84.0763 59.2897 83.7565 59.2897Z" fill="#0F172A"/>
<path d="M87.1752 59.2897H86.1202C85.8003 59.2897 85.541 59.5492 85.541 59.8694C85.541 60.1896 85.8003 60.4491 86.1202 60.4491H87.1752C87.495 60.4491 87.7543 60.1896 87.7543 59.8694C87.7543 59.5492 87.495 59.2897 87.1752 59.2897Z" fill="#0F172A"/>
<path d="M80.4745 59.1931H73.9175C73.5976 59.1931 73.3383 59.4527 73.3383 59.7728C73.3383 60.093 73.5976 60.3526 73.9175 60.3526H80.4745C80.7943 60.3526 81.0536 60.093 81.0536 59.7728C81.0536 59.4527 80.7943 59.1931 80.4745 59.1931Z" fill="#0F172A"/>
<path d="M96.5624 59.1931H90.0054C89.6856 59.1931 89.4263 59.4527 89.4263 59.7728C89.4263 60.093 89.6856 60.3526 90.0054 60.3526H96.5624C96.8823 60.3526 97.1416 60.093 97.1416 59.7728C97.1416 59.4527 96.8823 59.1931 96.5624 59.1931Z" fill="#0F172A"/>
<path d="M74.9081 61.9065H73.8531C73.5332 61.9065 73.2739 62.166 73.2739 62.4862C73.2739 62.8064 73.5332 63.0659 73.8531 63.0659H74.9081C75.2279 63.0659 75.4872 62.8064 75.4872 62.4862C75.4872 62.166 75.2279 61.9065 74.9081 61.9065Z" fill="#0F172A"/>
<path d="M86.9741 61.9065H85.9191C85.5992 61.9065 85.3399 62.166 85.3399 62.4862C85.3399 62.8064 85.5992 63.0659 85.9191 63.0659H86.9741C87.2939 63.0659 87.5532 62.8064 87.5532 62.4862C87.5532 62.166 87.2939 61.9065 86.9741 61.9065Z" fill="#0F172A"/>
<path d="M90.3928 61.9065H89.3378C89.0179 61.9065 88.7586 62.166 88.7586 62.4862C88.7586 62.8064 89.0179 63.0659 89.3378 63.0659H90.3928C90.7126 63.0659 90.9719 62.8064 90.9719 62.4862C90.9719 62.166 90.7126 61.9065 90.3928 61.9065Z" fill="#0F172A"/>
<path d="M83.6921 61.8099H77.1351C76.8152 61.8099 76.5559 62.0695 76.5559 62.3897C76.5559 62.7098 76.8152 62.9694 77.1351 62.9694H83.6921C84.0119 62.9694 84.2712 62.7098 84.2712 62.3897C84.2712 62.0695 84.0119 61.8099 83.6921 61.8099Z" fill="#0F172A"/>
<path d="M77.3213 72.3121H76.2663C75.9464 72.3121 75.6871 72.5717 75.6871 72.8919C75.6871 73.212 75.9464 73.4716 76.2663 73.4716H77.3213C77.6412 73.4716 77.9005 73.212 77.9005 72.8919C77.9005 72.5717 77.6412 72.3121 77.3213 72.3121Z" fill="#0F172A"/>
<path d="M80.74 72.3121H79.685C79.3651 72.3121 79.1058 72.5717 79.1058 72.8919C79.1058 73.212 79.3651 73.4716 79.685 73.4716H80.74C81.0599 73.4716 81.3192 73.212 81.3192 72.8919C81.3192 72.5717 81.0599 72.3121 80.74 72.3121Z" fill="#0F172A"/>
<path d="M90.1273 72.4088H83.5702C83.2504 72.4088 82.9911 72.6684 82.9911 72.9885C82.9911 73.3087 83.2504 73.5682 83.5702 73.5682H90.1273C90.4471 73.5682 90.7064 73.3087 90.7064 72.9885C90.7064 72.6684 90.4471 72.4088 90.1273 72.4088Z" fill="#0F172A"/>
<path d="M65.2553 72.3121H64.2002C63.8804 72.3121 63.6211 72.5717 63.6211 72.8919C63.6211 73.212 63.8804 73.4716 64.2002 73.4716H65.2553C65.5751 73.4716 65.8344 73.212 65.8344 72.8919C65.8344 72.5717 65.5751 72.3121 65.2553 72.3121Z" fill="#0F172A"/>
<path d="M74.0392 72.4088H67.4822C67.1624 72.4088 66.9031 72.6684 66.9031 72.9885C66.9031 73.3087 67.1624 73.5682 67.4822 73.5682H74.0392C74.3591 73.5682 74.6184 73.3087 74.6184 72.9885C74.6184 72.6684 74.3591 72.4088 74.0392 72.4088Z" fill="#0F172A"/>
<path d="M68.4729 69.6953H67.4179C67.098 69.6953 66.8387 69.9549 66.8387 70.275C66.8387 70.5952 67.098 70.8547 67.4179 70.8547H68.4729C68.7928 70.8547 69.0521 70.5952 69.0521 70.275C69.0521 69.9549 68.7928 69.6953 68.4729 69.6953Z" fill="#0F172A"/>
<path d="M80.5389 69.6953H79.4839C79.164 69.6953 78.9047 69.9549 78.9047 70.275C78.9047 70.5952 79.164 70.8547 79.4839 70.8547H80.5389C80.8587 70.8547 81.118 70.5952 81.118 70.275C81.118 69.9549 80.8587 69.6953 80.5389 69.6953Z" fill="#0F172A"/>
<path d="M83.9576 69.6953H82.9026C82.5827 69.6953 82.3234 69.9549 82.3234 70.275C82.3234 70.5952 82.5827 70.8547 82.9026 70.8547H83.9576C84.2774 70.8547 84.5367 70.5952 84.5367 70.275C84.5367 69.9549 84.2774 69.6953 83.9576 69.6953Z" fill="#0F172A"/>
<path d="M77.2569 69.792H70.6999C70.38 69.792 70.1207 70.0515 70.1207 70.3717C70.1207 70.6919 70.38 70.9514 70.6999 70.9514H77.2569C77.5768 70.9514 77.8361 70.6919 77.8361 70.3717C77.8361 70.0515 77.5768 69.792 77.2569 69.792Z" fill="#0F172A"/>
<path d="M71.6905 67.0785H70.6355C70.3156 67.0785 70.0563 67.338 70.0563 67.6582C70.0563 67.9784 70.3156 68.2379 70.6355 68.2379H71.6905C72.0104 68.2379 72.2697 67.9784 72.2697 67.6582C72.2697 67.338 72.0104 67.0785 71.6905 67.0785Z" fill="#0F172A"/>
<path d="M83.7565 67.0785H82.7015C82.3816 67.0785 82.1223 67.338 82.1223 67.6582C82.1223 67.9784 82.3816 68.2379 82.7015 68.2379H83.7565C84.0763 68.2379 84.3356 67.9784 84.3356 67.6582C84.3356 67.338 84.0763 67.0785 83.7565 67.0785Z" fill="#0F172A"/>
<path d="M87.1752 67.0785H86.1202C85.8003 67.0785 85.541 67.338 85.541 67.6582C85.541 67.9784 85.8003 68.2379 86.1202 68.2379H87.1752C87.495 68.2379 87.7543 67.9784 87.7543 67.6582C87.7543 67.338 87.495 67.0785 87.1752 67.0785Z" fill="#0F172A"/>
<path d="M80.4745 67.1752H73.9175C73.5976 67.1752 73.3383 67.4347 73.3383 67.7549C73.3383 68.0751 73.5976 68.3346 73.9175 68.3346H80.4745C80.7943 68.3346 81.0536 68.0751 81.0536 67.7549C81.0536 67.4347 80.7943 67.1752 80.4745 67.1752Z" fill="#0F172A"/>
<path d="M74.9081 64.4617H73.8531C73.5332 64.4617 73.2739 64.7212 73.2739 65.0414C73.2739 65.3616 73.5332 65.6211 73.8531 65.6211H74.9081C75.2279 65.6211 75.4872 65.3616 75.4872 65.0414C75.4872 64.7212 75.2279 64.4617 74.9081 64.4617Z" fill="#0F172A"/>
<path d="M86.9741 64.4617H85.9191C85.5992 64.4617 85.3399 64.7212 85.3399 65.0414C85.3399 65.3616 85.5992 65.6211 85.9191 65.6211H86.9741C87.2939 65.6211 87.5532 65.3616 87.5532 65.0414C87.5532 64.7212 87.2939 64.4617 86.9741 64.4617Z" fill="#0F172A"/>
<path d="M90.3928 64.4617H89.3378C89.0179 64.4617 88.7586 64.7212 88.7586 65.0414C88.7586 65.3616 89.0179 65.6211 89.3378 65.6211H90.3928C90.7126 65.6211 90.9719 65.3616 90.9719 65.0414C90.9719 64.7212 90.7126 64.4617 90.3928 64.4617Z" fill="#0F172A"/>
<path d="M83.6921 64.5583H77.1351C76.8152 64.5583 76.5559 64.8179 76.5559 65.1381C76.5559 65.4582 76.8152 65.7178 77.1351 65.7178H83.6921C84.0119 65.7178 84.2712 65.4582 84.2712 65.1381C84.2712 64.8179 84.0119 64.5583 83.6921 64.5583Z" fill="#0F172A"/>
<path d="M70.3672 109.897C70.323 109.919 70.2787 109.941 70.2345 109.961C69.955 110.1 69.6734 110.237 69.3899 110.372C68.5412 110.776 67.6819 111.161 66.8118 111.525C64.5224 112.484 62.1733 113.293 59.7793 113.947C59.3771 111.437 58.987 105.517 58.6129 101.163C58.5426 100.343 58.4722 99.5804 58.4018 98.9061C58.3349 98.0209 58.208 97.1412 58.0217 96.2732C58.0035 96.2052 57.9772 96.1396 57.9433 96.0779C57.9815 96.4262 58.0217 97.4649 58.0599 98.9061C58.08 99.5804 58.0981 100.343 58.1182 101.163C58.2128 105.354 58.3113 111.056 58.4098 114.303C58.1303 114.372 57.8488 114.44 57.5672 114.504C57.3903 114.547 57.2113 114.587 57.0323 114.625C56.8151 114.673 56.5979 114.722 56.3807 114.766C56.1535 114.814 55.9263 114.861 55.699 114.905C51.9855 115.635 48.2098 116.002 44.4254 116C44.174 116 43.9246 115.998 43.6732 115.996C43.5968 115.996 43.5204 115.994 43.442 115.992C43.2208 115.988 42.9915 115.984 42.7582 115.978C38.286 115.854 33.843 115.213 29.5178 114.068L29.6928 101.163L29.7229 98.9061L29.735 98.0506C29.6354 98.3258 29.5758 98.6139 29.558 98.9061C29.4877 99.4556 29.4153 100.235 29.3429 101.163C29.0674 104.738 28.7838 110.505 28.4902 113.786C25.0132 112.795 22.4713 111.892 19.2939 110.301C19.1712 110.241 19.0466 110.179 18.9239 110.116C18.946 109.961 18.9701 109.806 18.9923 109.647C19.3522 107.143 18.9279 103.884 19.3261 101.163C19.6298 99.0631 19.9435 97.0461 20.2592 95.3352C20.6413 93.2759 21.0294 91.6575 21.4135 90.8704C21.8559 89.9626 22.2983 89.0689 22.7267 88.2134C22.9117 87.845 23.0934 87.4834 23.2717 87.1284C23.3682 86.9372 23.4647 86.748 23.5592 86.5628C23.9896 85.7193 24.3958 84.9403 24.7679 84.2499C25.0293 83.7648 25.2706 83.326 25.4918 82.9415C25.7512 82.4886 25.9805 82.1142 26.1695 81.8303C27.5658 79.7118 29.6432 78.1345 32.0577 77.3596L32.118 77.3435L32.1764 77.3677L32.2427 77.3979L36.0757 75.9948L37.787 71.8703L46.5771 71.3289L47.9969 72.4098L48.7228 72.9634L49.4971 73.5532L50.9209 74.6381L51.3251 74.7629L51.9264 74.9481L56.0389 76.2122L56.0811 76.1941L56.1414 76.2102C58.3386 76.9142 60.2618 78.2863 61.6435 80.1355C61.7803 80.3126 61.9069 80.4958 62.0296 80.681C62.3634 81.1761 62.8139 81.9592 63.3448 82.9415C63.564 83.3461 63.7953 83.7849 64.0386 84.2499C64.1854 84.5297 65.4523 88.4871 66.6851 92.5291C67.8374 96.3134 68.9595 100.172 69.1063 101.163C69.1325 101.346 69.1606 101.531 69.1868 101.714C69.3537 102.86 69.5186 104.013 69.6774 105.138C69.9127 106.807 70.142 108.417 70.3612 109.856C70.3632 109.871 70.3652 109.883 70.3672 109.897Z" fill="#3F3D56"/>
<path opacity="0.2" d="M61.0519 95.3259L59.3431 88.7251L57.8343 94.4209L61.0519 95.3259Z" fill="black"/>
<path d="M3.18328 95.2493C3.27188 95.5075 3.43995 95.731 3.66335 95.8876C3.88675 96.0443 4.15399 96.126 4.4267 96.1211L9.7542 95.9839C10.0289 95.9785 10.2945 95.8843 10.5113 95.7153C10.7281 95.5464 10.8844 95.3117 10.957 95.0464L11.7108 86.9771C11.9783 87.0984 12.2695 87.1583 12.5631 87.1524C13.0782 87.1395 13.5671 86.9222 13.9222 86.5485C14.2773 86.1747 14.4695 85.6751 14.4566 85.1595C14.4437 84.6438 14.2267 84.1545 13.8533 83.799C13.4799 83.4436 12.9807 83.2512 12.4656 83.2641C12.3482 83.2637 12.2312 83.2759 12.1164 83.3005C11.9916 83.1653 11.8399 83.0578 11.6711 82.9849C11.5023 82.912 11.3201 82.8753 11.1363 82.8771L2.94135 83.089C2.87337 83.0915 2.80573 83.0999 2.7392 83.1141C2.55949 83.1476 2.38904 83.2193 2.23932 83.3243C2.0896 83.4293 1.96409 83.5652 1.87124 83.7228C1.77838 83.8804 1.72034 84.0561 1.70102 84.2381C1.68169 84.4201 1.70154 84.6041 1.75921 84.7777L3.18328 95.2493ZM11.8655 86.4292L12.4019 84.5063C12.4629 84.2842 12.4644 84.0499 12.406 83.8271C12.432 83.827 12.455 83.8146 12.481 83.8146C12.8489 83.807 13.2047 83.9457 13.4705 84.2003C13.7364 84.4549 13.8905 84.8046 13.8991 85.1728C13.9077 85.5409 13.7701 85.8975 13.5165 86.1643C13.2629 86.431 12.9139 86.5863 12.5461 86.5959C12.3083 86.6033 12.073 86.5457 11.8655 86.4292Z" fill="#2F2E41"/>
<path d="M2.7392 83.1141C2.91379 84.1133 4.8767 84.8158 7.23696 84.6937C9.40738 84.5936 11.182 83.8307 11.5072 82.9266C11.3868 82.891 11.2617 82.8743 11.1363 82.8771L2.94134 83.0889C2.87336 83.0915 2.80573 83.0999 2.7392 83.1141Z" fill="#3F3D56"/>
<path d="M7.66953 90.8152C7.68032 90.8125 7.69058 90.808 7.69988 90.8019L8.85683 90.0439C8.87082 90.0347 8.88231 90.0223 8.89027 90.0076C8.89823 89.9929 8.9024 89.9764 8.9024 89.9597C8.90241 89.943 8.89825 89.9266 8.89031 89.9119C8.88236 89.8972 8.87088 89.8847 8.8569 89.8755L7.65436 89.0871C7.64333 89.0798 7.63096 89.0748 7.61796 89.0723C7.60497 89.0698 7.59161 89.0698 7.57865 89.0725C7.56569 89.0752 7.55338 89.0804 7.54243 89.0878C7.53148 89.0953 7.52212 89.1048 7.51486 89.1159C7.50761 89.127 7.50261 89.1394 7.50016 89.1524C7.4977 89.1654 7.49784 89.1788 7.50056 89.1917C7.50329 89.2047 7.50854 89.217 7.51603 89.2279C7.52351 89.2388 7.53308 89.2482 7.54418 89.2554L8.61823 89.9596L7.58981 90.6335C7.5699 90.6465 7.55525 90.6662 7.54846 90.689C7.54168 90.7118 7.54321 90.7363 7.55277 90.7581C7.56233 90.7799 7.57931 90.7976 7.60069 90.8081C7.62207 90.8186 7.64645 90.8211 7.66952 90.8152H7.66953Z" fill="#2E69C2"/>
<path d="M5.8422 90.8996C5.86162 90.8947 5.87912 90.884 5.89247 90.8691C5.90583 90.8542 5.91441 90.8356 5.91714 90.8157C5.91986 90.7958 5.9166 90.7756 5.90776 90.7576C5.89893 90.7396 5.88493 90.7247 5.86755 90.7147L4.80111 90.1027L5.83186 89.3363C5.84246 89.3284 5.85139 89.3186 5.85817 89.3072C5.86494 89.2959 5.86942 89.2833 5.87134 89.2703C5.87327 89.2572 5.8726 89.2439 5.86938 89.2311C5.86616 89.2183 5.86046 89.2062 5.85259 89.1956C5.84472 89.185 5.83484 89.1761 5.82351 89.1693C5.81219 89.1625 5.79964 89.158 5.78659 89.1561C5.77354 89.1542 5.76023 89.1548 5.74743 89.1581C5.73464 89.1613 5.7226 89.167 5.71201 89.1749L4.55797 90.0329C4.54456 90.0429 4.53384 90.056 4.52678 90.0711C4.51971 90.0863 4.51653 90.1029 4.51751 90.1196C4.51849 90.1363 4.52361 90.1525 4.5324 90.1667C4.54119 90.1809 4.55338 90.1927 4.56786 90.201L5.76747 90.8893C5.79011 90.9023 5.81691 90.906 5.8422 90.8996Z" fill="#2E69C2"/>
<path d="M7.55447 91.4794C7.5642 91.477 7.5735 91.4731 7.58202 91.4678C7.59332 91.4609 7.60315 91.4519 7.61095 91.4412C7.61876 91.4305 7.62439 91.4184 7.62751 91.4056C7.63064 91.3928 7.63121 91.3794 7.62919 91.3664C7.62716 91.3533 7.62258 91.3407 7.61571 91.3295L5.97565 88.6304C5.9617 88.6078 5.93935 88.5915 5.91349 88.5853C5.88762 88.5791 5.86035 88.5834 5.83763 88.5972C5.81491 88.6111 5.7986 88.6334 5.79226 88.6592C5.78593 88.6851 5.79008 88.7124 5.80382 88.7352L7.44388 91.4342C7.45508 91.4526 7.47186 91.4669 7.49176 91.475C7.51166 91.4832 7.53364 91.4847 7.55447 91.4794Z" fill="#2E69C2"/>
<path d="M157.893 110.116C157.771 110.178 157.646 110.241 157.523 110.301C154.346 111.891 151.804 112.795 148.327 113.785C148.033 110.504 147.75 104.737 147.474 101.162C147.402 100.234 147.33 99.4553 147.259 98.9057C147.241 98.6136 147.182 98.3254 147.082 98.0502L147.094 98.9057L147.124 101.162L147.299 114.067C142.974 115.213 138.531 115.854 134.059 115.977C133.826 115.984 133.596 115.988 133.375 115.992C133.297 115.994 133.22 115.996 133.144 115.996C132.893 115.998 132.643 116 132.392 116C127.679 116.003 122.983 115.433 118.407 114.303C118.506 111.056 118.604 105.353 118.699 101.162C118.719 100.343 118.737 99.5801 118.757 98.9057C118.795 97.4645 118.836 96.4258 118.874 96.0776C118.84 96.1393 118.814 96.2048 118.795 96.2728C118.609 97.1408 118.482 98.0205 118.415 98.9057C118.345 99.5801 118.275 100.343 118.204 101.162C117.83 105.516 117.44 111.436 117.038 113.946C114.644 113.292 112.295 112.483 110.005 111.525C108.799 111.022 107.614 110.479 106.45 109.896C106.671 108.447 106.902 106.823 107.14 105.138C107.325 103.831 107.516 102.489 107.711 101.162C108.012 99.1131 118.261 76.9848 120.676 76.2099L120.736 76.1938L120.778 76.2119L124.891 74.9477L125.492 74.7626L125.896 74.6378L127.32 73.5528L128.094 72.963L128.82 72.4094L130.24 71.3285L139.03 71.87L140.741 75.9945L144.574 77.3975L144.641 77.3673L144.699 77.3432L144.759 77.3593C147.174 78.1341 149.251 79.7115 150.648 81.83C150.837 82.1138 151.066 82.4882 151.325 82.9411C151.547 83.3256 151.788 83.7644 152.049 84.2495C152.421 84.94 152.828 85.719 153.258 86.5624C153.352 86.7476 153.449 86.9368 153.546 87.128C153.724 87.4823 153.906 87.844 154.09 88.213C154.519 89.0685 154.961 89.9622 155.404 90.8701C155.788 91.6571 156.176 93.2755 156.558 95.3348C156.874 97.0458 157.187 99.0627 157.491 101.162C157.889 103.884 157.465 107.143 157.825 109.647C157.847 109.806 157.871 109.961 157.893 110.116Z" fill="#3F3D56"/>
<path d="M132.113 69.8478C137.759 69.8478 142.337 65.2663 142.337 59.6148C142.337 53.9632 137.759 49.3817 132.113 49.3817C126.467 49.3817 121.89 53.9632 121.89 59.6148C121.89 65.2663 126.467 69.8478 132.113 69.8478Z" fill="#FFB6B6"/>
<path opacity="0.2" d="M115.765 95.3259L117.474 88.7251L118.982 94.4209L115.765 95.3259Z" fill="black"/>
<path d="M161.236 91.025C160.624 99.4552 161.258 103.167 157.883 110.118C154.813 111.622 151.615 112.849 148.327 113.785C147.985 113.882 147.643 113.976 147.299 114.067C142.974 115.213 138.531 115.854 134.059 115.977C133.826 115.983 133.596 115.987 133.375 115.991C133.297 115.993 133.22 115.995 133.144 115.995C132.893 115.997 132.643 116 132.392 116C127.679 116.003 122.983 115.433 118.407 114.303C117.949 114.19 117.492 114.071 117.038 113.946C114.644 113.292 112.295 112.483 110.005 111.525C108.799 111.022 107.614 110.479 106.45 109.896C106.187 109.763 105.923 109.631 105.664 109.494C104.33 107.147 103.572 104.292 103.556 100.862C104.479 94.9522 159.196 85.9282 161.236 91.025Z" fill="#2F2E41"/>
<path opacity="0.2" d="M161.234 92.4687C161.265 91.9468 161.3 91.4077 161.341 90.8463C159.302 85.7495 104.584 94.7735 103.661 100.684C103.664 101.225 103.687 101.751 103.726 102.265C105.961 96.4314 157.943 87.8547 161.234 92.4687Z" fill="black"/>
<path d="M102.195 91.4226L106.687 89.1748L102.944 79.0597L101.958 73.9585C101.829 73.2957 101.53 72.6783 101.088 72.1678C100.647 71.6573 100.08 71.2716 99.443 71.0494C98.8062 70.8271 98.1223 70.7761 97.4597 70.9013C96.797 71.0265 96.1787 71.3236 95.6667 71.7629C94.9079 72.4139 94.4315 73.3345 94.338 74.3305C94.2444 75.3264 94.5411 76.3197 95.1654 77.1009L98.8269 81.6821L102.195 91.4226Z" fill="#FFB6B6"/>
<path d="M106.687 87.3017L100.698 90.2987L105.243 104.552C105.569 105.576 106.154 106.497 106.941 107.228C107.728 107.959 108.69 108.473 109.734 108.722C111.022 109.029 112.374 108.918 113.594 108.404C114.813 107.89 115.838 107 116.519 105.864L128.57 85.1888C129.424 83.7641 129.688 82.0616 129.304 80.445C128.921 78.8283 127.922 77.4258 126.52 76.5368C125.765 76.0587 124.919 75.7449 124.036 75.6158C123.152 75.4868 122.252 75.5453 121.392 75.7877C120.533 76.0301 119.735 76.4509 119.049 77.0226C118.362 77.5944 117.804 78.3044 117.411 79.1063L110.055 94.7944L106.687 87.3017Z" fill="#3F3D56"/>
<path d="M42.1319 69.1418C48.3443 69.1418 53.3805 64.1008 53.3805 57.8824C53.3805 51.664 48.3443 46.623 42.1319 46.623C35.9196 46.623 30.8834 51.664 30.8834 57.8824C30.8834 64.1008 35.9196 69.1418 42.1319 69.1418Z" fill="#A0616A"/>
<path d="M31.0185 50.1233C31.933 48.8895 33.2476 48.0122 34.2531 46.8513C34.8048 46.2144 35.2629 45.4927 35.8831 44.9225C37.0355 43.863 38.6471 43.4289 40.2109 43.3749C41.9246 43.3309 43.6247 43.6913 45.1735 44.427C46.7223 45.1627 48.0762 46.2531 49.1259 47.6099C49.9432 47.1301 50.7606 46.6504 51.578 46.1708C51.9009 47.0215 52.2238 47.8723 52.5468 48.7231C52.8118 48.4925 53.1498 48.3633 53.5009 48.3583C53.852 48.3534 54.1935 48.4731 54.4649 48.6961C54.7363 48.9191 54.92 49.2311 54.9835 49.5768C55.0471 49.9225 54.9862 50.2795 54.8119 50.5846C55.0064 49.983 55.8976 49.8553 56.389 50.2528C56.8804 50.6503 57.0119 51.3575 56.9318 51.9847C56.8312 52.6729 56.5272 53.3152 56.059 53.8291C55.5908 54.343 54.9798 54.7049 54.3045 54.8685C53.2378 55.1063 51.9964 54.8565 51.1427 55.5393C50.4582 56.0867 50.2516 57.0835 49.5531 57.6129C48.6924 58.2651 47.4759 57.9635 46.406 58.1076C44.5341 58.3598 43.0519 60.2761 43.2769 62.1533C43.1075 61.561 42.9296 60.9515 42.5452 60.4704C42.1608 59.9892 41.5134 59.6638 40.9238 59.8407C39.9493 60.1331 39.7899 61.4627 40.0261 62.4532C40.6525 65.08 43.0264 69.3261 43.0264 69.3261C39.944 70.5432 36.2717 69.3924 33.8934 67.0829C31.5151 64.7735 30.2765 61.5033 29.7369 58.2309C29.2794 55.4558 29.3442 52.3821 31.0185 50.1233Z" fill="#2F2E41"/>
<path d="M144.925 65.2559C147.065 60.3447 145.853 55.8253 143.244 53.4278V53.4258C142.218 51.125 140.855 49.3496 139.294 48.933C138.54 48.4478 137.808 47.8782 136.996 47.5883C136.617 47.4465 136.214 47.3829 135.81 47.4012C135.407 47.4195 135.011 47.5195 134.647 47.695L134.232 47.5843C133.881 46.6845 133.468 46.6664 133.01 47.2582C131.244 46.4349 129.653 46.0665 128.238 46.0665C123.62 46.0665 120.889 49.9797 120.166 54.7101L124.025 55.7387L125.366 53.5989L124.747 55.9319L126.876 56.4976C130.118 60.7227 126.239 70.4694 121.322 75.8922C122.492 75.5682 123.658 75.2944 124.819 75.071L129.038 68.8792L126.424 74.5154C127.781 74.3161 129.513 74.5073 131.405 74.8918C132.042 74.0584 132.378 72.9473 132.049 71.9569C132.588 73.0014 132.96 74.1243 133.151 75.2843C137.144 76.2606 142.592 76.7618 145.528 77.1322C147.9 76.3571 147.907 67.603 144.925 65.2559Z" fill="#2F2E41"/>
<path d="M146.317 48.5501C147.885 52.0634 144.722 53.5745 141.824 53.5318C139.206 53.4933 136.981 51.6522 136.847 49.0346C136.783 47.7777 137.221 46.5466 138.063 45.6124C138.906 44.6782 140.085 44.1172 141.34 44.053C143.955 43.9192 145.249 46.157 146.317 48.5501Z" fill="#2F2E41"/>
<path d="M73.5989 105.741L71.0168 101.431L79.602 94.9111L83.1715 91.1387C83.6353 90.6486 84.2194 90.2889 84.8656 90.0955C85.5117 89.9022 86.1972 89.882 86.8536 90.0369C87.51 90.1918 88.1142 90.5165 88.606 90.9784C89.0978 91.4403 89.4598 92.0234 89.656 92.6692C89.9466 93.6263 89.8544 94.659 89.3989 95.5493C88.9433 96.4397 88.1599 97.118 87.2142 97.4412L81.6673 99.3367L73.5989 105.741Z" fill="#A0616A"/>
<path d="M75.4651 105.599L71.4451 108.953L70.3612 109.857L70.2345 109.961C69.9549 110.1 69.6734 110.237 69.3899 110.372C68.5412 110.776 67.6818 111.161 66.8118 111.525C64.5224 112.484 62.1733 113.293 59.7793 113.947C59.3248 114.072 58.8683 114.19 58.4098 114.303C58.1303 114.372 57.8487 114.44 57.5672 114.504C57.3902 114.547 57.2113 114.587 57.0323 114.625C56.8151 114.673 56.5979 114.722 56.3807 114.766C56.1535 114.814 55.9262 114.861 55.699 114.905C55.0875 114.323 54.6007 113.622 54.2681 112.845C53.9356 112.069 53.7642 111.233 53.7644 110.388C53.7644 110.334 53.7644 110.277 53.7664 110.221L54.4119 93.6484L54.6975 86.3031C54.7415 84.6421 55.4328 83.0641 56.6236 81.9063C57.8144 80.7486 59.4103 80.103 61.0704 80.1073C61.2634 80.1073 61.4545 80.1174 61.6435 80.1355C61.7803 80.3126 61.9069 80.4958 62.0296 80.681C62.3634 81.1762 62.8139 81.9592 63.3448 82.9415C63.564 83.3461 63.7953 83.785 64.0386 84.25C64.1854 84.5297 65.4523 88.4872 66.6851 92.5292L66.1421 96.7503L65.1607 104.359L69.1868 101.714L72.0223 99.8502L72.3581 100.412L73.2329 101.873L74.9221 104.691L75.4651 105.599Z" fill="#3F3D56"/>
<path d="M73.261 100.863C73.259 101.205 73.251 101.541 73.2329 101.873C73.191 102.789 73.0848 103.701 72.9152 104.603C72.6376 106.116 72.1424 107.581 71.4451 108.953C71.3526 109.136 71.2541 109.317 71.1535 109.494C70.8941 109.631 70.6307 109.764 70.3672 109.897C70.323 109.919 70.2787 109.941 70.2345 109.961C69.1144 110.519 67.9735 111.04 66.8118 111.525C64.5224 112.484 62.1733 113.293 59.7793 113.947C59.3248 114.072 58.8683 114.19 58.4098 114.303C57.5149 114.525 56.6113 114.725 55.699 114.905C51.9855 115.635 48.2098 116.002 44.4253 116C44.174 116 43.9246 115.998 43.6732 115.996C43.5968 115.996 43.5204 115.994 43.442 115.992C43.2208 115.988 42.9915 115.984 42.7582 115.978C38.2859 115.854 33.843 115.213 29.5178 114.068C29.1739 113.977 28.8314 113.883 28.4902 113.786C25.2023 112.85 22.0042 111.622 18.9339 110.118C15.5595 103.168 16.1929 99.4557 15.5816 91.0255C16.8365 87.8873 38.0666 90.1035 54.412 93.6483C58.8482 94.6105 62.9225 95.6713 66.1421 96.7503C69.4683 97.8634 71.8795 98.9947 72.8247 100.058C73.0455 100.278 73.1972 100.557 73.261 100.863Z" fill="#2F2E41"/>
<path opacity="0.2" d="M15.5828 92.4687C15.5516 91.9468 15.5167 91.4077 15.476 90.8463C17.5151 85.7495 72.2323 94.7735 73.1554 100.684C73.1529 101.225 73.1297 101.751 73.0908 102.265C70.8554 96.4314 18.8733 87.8547 15.5828 92.4687Z" fill="black"/>
</g>
<defs>
<clipPath id="clip0_195_146">
<rect width="177" height="116" fill="white"/>
</clipPath>
</defs>
</svg>
