<svg xmlns="http://www.w3.org/2000/svg" width="172" height="136" fill="none" viewBox="0 0 172 136"><path fill="#3F3D56" d="M86.1812 115.719C74.5272 115.719 63.2338 111.727 54.2252 104.424C45.2165 97.121 39.0501 86.9584 36.7765 75.6677C34.503 64.377 36.263 52.6569 41.7567 42.5043C47.2503 32.3518 56.1378 24.3949 66.9046 19.9895C77.6715 15.5841 89.6517 15.0028 100.804 18.3445C111.956 21.6862 121.59 28.7443 128.065 38.3161C134.539 47.8879 137.454 59.3811 136.312 70.8376C135.169 82.294 130.041 93.0048 121.8 101.145C117.134 105.78 111.583 109.455 105.469 111.956C99.3545 114.458 92.799 115.737 86.1812 115.719ZM86.1812 16.5843C58.6192 16.5843 36.1958 38.7343 36.1958 65.9603C36.1958 93.1863 58.6192 115.336 86.1812 115.336C113.743 115.336 136.167 93.1863 136.167 65.9603C136.167 38.7343 113.743 16.5843 86.1812 16.5843Z"/><path fill="#2F2E41" d="M104.885 123.181V73.0519H67.1149V123.181H104.885Z"/><path fill="#3F3D56" d="M111.374 71.5212H60.6261V91.4197H111.374V71.5212Z"/><path fill="#3F3D56" d="M111.374 93.7158H60.6261V113.614H111.374V93.7158Z"/><path fill="#3F3D56" d="M111.374 115.91H60.6261V135.809H111.374V115.91Z"/><path fill="#2E69C2" d="M111.374 79.9583H60.6261V83.0196H111.374V79.9583Z"/><path fill="#2E69C2" d="M111.374 102.153H60.6261V105.214H111.374V102.153Z"/><path fill="#2E69C2" d="M111.374 124.347H60.6261V127.409H111.374V124.347Z"/><path fill="#2E69C2" d="M101.496 75.5392C102.137 75.5392 102.658 75.0252 102.658 74.3912C102.658 73.7572 102.137 73.2432 101.496 73.2432C100.854 73.2432 100.333 73.7572 100.333 74.3912C100.333 75.0252 100.854 75.5392 101.496 75.5392Z"/><path fill="#2E69C2" d="M105.563 75.5392C106.205 75.5392 106.725 75.0252 106.725 74.3912C106.725 73.7572 106.205 73.2432 105.563 73.2432C104.921 73.2432 104.401 73.7572 104.401 74.3912C104.401 75.0252 104.921 75.5392 105.563 75.5392Z"/><path fill="#2E69C2" d="M109.631 75.5392C110.273 75.5392 110.793 75.0252 110.793 74.3912C110.793 73.7572 110.273 73.2432 109.631 73.2432C108.989 73.2432 108.469 73.7572 108.469 74.3912C108.469 75.0252 108.989 75.5392 109.631 75.5392Z"/><path fill="#2E69C2" d="M101.496 97.351C102.137 97.351 102.658 96.8371 102.658 96.203C102.658 95.569 102.137 95.0551 101.496 95.0551C100.854 95.0551 100.333 95.569 100.333 96.203C100.333 96.8371 100.854 97.351 101.496 97.351Z"/><path fill="#2E69C2" d="M105.563 97.351C106.205 97.351 106.725 96.8371 106.725 96.203C106.725 95.569 106.205 95.0551 105.563 95.0551C104.921 95.0551 104.401 95.569 104.401 96.203C104.401 96.8371 104.921 97.351 105.563 97.351Z"/><path fill="#2E69C2" d="M109.631 97.351C110.273 97.351 110.793 96.8371 110.793 96.203C110.793 95.569 110.273 95.0551 109.631 95.0551C108.989 95.0551 108.469 95.569 108.469 96.203C108.469 96.8371 108.989 97.351 109.631 97.351Z"/><path fill="#2E69C2" d="M101.496 119.163C102.137 119.163 102.658 118.649 102.658 118.015C102.658 117.381 102.137 116.867 101.496 116.867C100.854 116.867 100.333 117.381 100.333 118.015C100.333 118.649 100.854 119.163 101.496 119.163Z"/><path fill="#2E69C2" d="M105.563 119.163C106.205 119.163 106.725 118.649 106.725 118.015C106.725 117.381 106.205 116.867 105.563 116.867C104.921 116.867 104.401 117.381 104.401 118.015C104.401 118.649 104.921 119.163 105.563 119.163Z"/><path fill="#2E69C2" d="M109.631 119.163C110.273 119.163 110.793 118.649 110.793 118.015C110.793 117.381 110.273 116.867 109.631 116.867C108.989 116.867 108.469 117.381 108.469 118.015C108.469 118.649 108.989 119.163 109.631 119.163Z"/><path fill="#3F3D56" d="M172 135.617H0V136H172V135.617Z"/><path fill="#3F3D56" d="M46.8503 51.8633V87.4494C46.8502 88.1939 46.5507 88.9079 46.0178 89.4343C45.4848 89.9607 44.7621 90.2566 44.0084 90.2567H30.0085C29.2547 90.2568 28.5316 89.9611 27.9984 89.4347C27.4653 88.9082 27.1656 88.1941 27.1654 87.4494V51.8633C27.1656 51.1186 27.4653 50.4045 27.9984 49.8781C28.5316 49.3516 29.2547 49.0559 30.0085 49.056H31.7068C31.6234 49.2586 31.5917 49.4783 31.6144 49.6958C31.6371 49.9134 31.7135 50.122 31.837 50.3035C31.9605 50.4851 32.1272 50.6338 32.3225 50.7368C32.5178 50.8397 32.7357 50.8937 32.9571 50.894H40.9389C41.1603 50.8937 41.3782 50.8397 41.5735 50.7368C41.7688 50.6338 41.9356 50.4851 42.059 50.3036C42.1825 50.122 42.2589 49.9134 42.2817 49.6958C42.3044 49.4783 42.2726 49.2586 42.1892 49.056H44.0084C44.7621 49.0562 45.4848 49.352 46.0178 49.8784C46.5507 50.4049 46.8502 51.1188 46.8503 51.8633Z"/><path fill="#fff" d="M45.9178 55.8517H28.098V80.3422H45.9178V55.8517Z"/><path fill="#E6E6E6" d="M40.27 72.6921H33.1576V73.0936H40.27V72.6921Z"/><path fill="#2E69C2" d="M44.1555 74.1663H33.1504V74.5677H44.1555V74.1663Z"/><path fill="#E6E6E6" d="M41.7869 75.5551H33.1504V75.9565H41.7869V75.5551Z"/><path fill="#E6E6E6" d="M38.2307 76.9438H33.1504V77.3453H38.2307V76.9438Z"/><path fill="#E6E6E6" d="M40.7708 78.3326H33.1504V78.7341H40.7708V78.3326Z"/><path fill="#E6E6E6" d="M30.745 72.5767H29.9321V73.3797H30.745V72.5767Z"/><path fill="#2E69C2" d="M30.745 73.9655H29.9321V74.7685H30.745V73.9655Z"/><path fill="#E6E6E6" d="M30.745 75.3543H29.9321V76.1572H30.745V75.3543Z"/><path fill="#E6E6E6" d="M30.745 76.7431H29.9321V77.546H30.745V76.7431Z"/><path fill="#E6E6E6" d="M30.745 78.1319H29.9321V78.9348H30.745V78.1319Z"/><path fill="#E6E6E6" d="M40.6269 58.913H33.4607V65.9918H40.6269V58.913Z"/><path fill="#3F3D56" d="M109.823 0.0266724H62.1971V30.1566H109.823V0.0266724Z"/><path fill="#fff" d="M105.274 8.45599H65.7875V23.1953H105.274V8.45599Z"/><path fill="#E6E6E6" d="M82.4585 11.0096H72.9817V11.5445H82.4585V11.0096Z"/><path fill="#2E69C2" d="M87.6358 12.9737H72.9722V13.5086H87.6358V12.9737Z"/><path fill="#E6E6E6" d="M84.4797 14.8242H72.9722V15.3591H84.4797V14.8242Z"/><path fill="#E6E6E6" d="M79.7413 16.6747H72.9722V17.2096H79.7413V16.6747Z"/><path fill="#E6E6E6" d="M83.1259 18.5251H72.9722V19.0601H83.1259V18.5251Z"/><path fill="#E6E6E6" d="M69.767 10.8558H68.684V11.9256H69.767V10.8558Z"/><path fill="#2E69C2" d="M69.767 12.7062H68.684V13.7761H69.767V12.7062Z"/><path fill="#E6E6E6" d="M69.767 14.5567H68.684V15.6266H69.767V14.5567Z"/><path fill="#E6E6E6" d="M69.767 16.4072H68.684V17.4771H69.767V16.4072Z"/><path fill="#E6E6E6" d="M69.767 18.2577H68.684V19.3275H69.767V18.2577Z"/><path fill="#E6E6E6" d="M103.336 10.3027H93.6403V19.8806H103.336V10.3027Z"/><path fill="#2E69C2" d="M109.803 0H62.1768V1.99866H109.803V0Z"/><path fill="#fff" d="M63.6803 1.423C63.9046 1.423 64.0865 1.24338 64.0865 1.0218C64.0865 0.800227 63.9046 0.620605 63.6803 0.620605C63.456 0.620605 63.2742 0.800227 63.2742 1.0218C63.2742 1.24338 63.456 1.423 63.6803 1.423Z"/><path fill="#fff" d="M65.1038 1.423C65.3281 1.423 65.5099 1.24338 65.5099 1.0218C65.5099 0.800227 65.3281 0.620605 65.1038 0.620605C64.8795 0.620605 64.6976 0.800227 64.6976 1.0218C64.6976 1.24338 64.8795 1.423 65.1038 1.423Z"/><path fill="#fff" d="M66.5272 1.423C66.7515 1.423 66.9334 1.24338 66.9334 1.0218C66.9334 0.800227 66.7515 0.620605 66.5272 0.620605C66.3029 0.620605 66.1211 0.800227 66.1211 1.0218C66.1211 1.24338 66.3029 1.423 66.5272 1.423Z"/><path fill="#3F3D56" d="M141.716 56.406H130.094V62.3373H141.716V56.406Z"/><path fill="#3F3D56" d="M141.716 77.6439H130.094V83.5751H141.716V77.6439Z"/><path fill="#3F3D56" d="M135.905 79.5572C141.253 79.5572 145.589 75.2741 145.589 69.9906C145.589 64.7071 141.253 60.424 135.905 60.424C130.556 60.424 126.22 64.7071 126.22 69.9906C126.22 75.2741 130.556 79.5572 135.905 79.5572Z"/><path fill="#fff" d="M135.905 77.4526C140.077 77.4526 143.459 74.1117 143.459 69.9906C143.459 65.8695 140.077 62.5287 135.905 62.5287C131.733 62.5287 128.351 65.8695 128.351 69.9906C128.351 74.1117 131.733 77.4526 135.905 77.4526Z"/><path fill="#E2E2E2" d="M139.29 67.9461H133.431V68.2768H139.29V67.9461Z"/><path fill="#2E69C2" d="M142.49 69.1603H133.425V69.491H142.49V69.1603Z"/><path fill="#E2E2E2" d="M140.539 70.3043H133.425V70.635H140.539V70.3043Z"/><path fill="#E2E2E2" d="M137.61 71.4482H133.425V71.7789H137.61V71.4482Z"/><path fill="#E2E2E2" d="M139.702 72.5923H133.425V72.923H139.702V72.5923Z"/><path fill="#E2E2E2" d="M131.444 67.851H130.774V68.5124H131.444V67.851Z"/><path fill="#2E69C2" d="M131.444 68.995H130.774V69.6564H131.444V68.995Z"/><path fill="#E2E2E2" d="M131.444 70.139H130.774V70.8004H131.444V70.139Z"/><path fill="#E2E2E2" d="M131.444 71.283H130.774V71.9444H131.444V71.283Z"/><path fill="#E2E2E2" d="M131.444 72.4269H130.774V73.0883H131.444V72.4269Z"/></svg>