<svg width="512" height="261" viewBox="0 0 512 261" fill="none" xmlns="http://www.w3.org/2000/svg">
<path d="M489.274 144.295L487.67 157.032L483.689 188.668H403.723C404.347 181.577 405.201 171.371 406.113 160.354C406.203 159.253 406.297 158.146 406.387 157.032C408.674 129.337 411.176 97.9971 411.176 97.9971L421.689 99.9503L442.086 103.733L450.398 105.273L472.655 109.407C483.752 111.463 491.385 127.487 489.274 144.295V144.295Z" fill="#F2F2F2"/>
<path d="M428.786 46.7476L438.62 63.9096L419.72 77.2682L411.657 56.1728L428.786 46.7476Z" fill="#FFB6B6"/>
<path d="M416.267 62.9836C429.722 62.9836 440.629 52.106 440.629 38.6877C440.629 25.2695 429.722 14.3919 416.267 14.3919C402.812 14.3919 391.905 25.2695 391.905 38.6877C391.905 52.106 402.812 62.9836 416.267 62.9836Z" fill="#FFB6B6"/>
<path d="M414.518 44.1193C412.583 41.1832 413.343 39.6475 411.723 38.5685C411.723 38.5685 411.072 38.1343 406.408 37.8868C405.363 30.3915 404.06 29.4825 404.06 29.4825C402.557 28.4349 400.328 28.7753 398.941 29.416C396.007 30.7711 396.347 33.6983 394.372 34.2584C391.644 35.0322 386.679 30.67 386.19 25.6762C385.791 21.6027 388.423 17.6463 389.467 17.8556C390.501 18.0631 392.979 14.9084 394.317 14.9571C395.231 14.9903 398.964 13.3722 399.968 13.4987C401.065 13.6369 404.681 15.5188 404.831 15.0888C405.878 12.101 405.571 11.272 406.459 10.4173C408.033 8.90267 410.609 9.9574 414.649 10.5236C422.963 11.6887 424.414 8.95496 428.674 10.8079C430.826 11.7439 432.627 14.2682 436.141 19.2787C441.055 26.2857 443.512 29.7892 443.527 33.8756C443.543 38.0429 441.52 37.7784 440.631 43.9478C439.642 50.8154 441.744 53.9557 439.447 56.1868C437.672 57.9112 434.065 58.3205 432.169 56.8071C428.924 54.216 433.171 47.9637 429.58 43.3958C427.375 40.5918 422.942 39.3442 420.911 40.7302C418.614 42.2974 419.879 46.8974 418.265 47.3336C416.882 47.7072 414.855 44.6309 414.518 44.1193L414.518 44.1193Z" fill="#2F2E41"/>
<path d="M471.267 139.81C470.588 151.397 467.889 155.055 466.943 168.739C466.737 171.743 466.613 175.231 466.613 179.39C466.613 180.45 466.619 181.475 466.619 182.476C466.619 184.609 466.578 186.624 466.329 188.667C466.14 190.299 465.816 191.943 465.278 193.675H412.809C412.803 193.663 412.803 193.651 412.797 193.639C412.49 192.308 412.295 191.036 412.147 189.816C412.1 189.427 412.058 189.045 412.023 188.667C411.976 188.226 411.934 187.79 411.893 187.36C411.733 185.646 411.574 184.026 411.196 182.476C410.688 180.338 409.767 178.323 407.876 176.379C407.103 175.584 406.329 174.966 405.573 174.424C405.425 174.323 405.283 174.223 405.136 174.123C403.045 172.692 401.066 171.661 399.353 168.739C399.324 168.698 399.3 168.651 399.276 168.61C398.981 168.097 398.213 166.754 397.658 164.963C397.073 163.102 396.719 160.763 397.357 158.372C398.875 152.705 404.498 152.139 409.093 146.413C409.589 145.795 410.08 145.111 410.546 144.351C412.625 140.982 413.187 138.013 413.848 134.484C413.954 133.913 414.049 133.347 414.126 132.8C414.185 132.387 414.238 131.981 414.28 131.58C414.645 128.217 414.468 125.318 414.037 122.726C412.632 114.238 408.485 108.983 411.415 101.366C412.336 98.975 413.642 97.1782 414.959 95.6408C417.746 92.383 420.611 90.2683 420.115 86.0626C419.613 81.8211 416.388 81.2378 416.028 77.5325C415.845 75.6594 416.459 73.6859 417.611 71.7479V71.7421C421.297 65.5036 430.499 59.7601 436.347 59.9428C437.428 59.9724 438.385 60.2137 439.182 60.6791C442.071 62.3756 440.866 66.0809 445.29 71.2767C448.58 75.135 452.301 76.6785 453.713 77.4088C459.306 80.3191 463.854 88.9018 466.943 99.8762C466.967 99.9587 466.991 100.041 467.014 100.13C468.922 107.004 470.269 114.809 470.937 122.726C471.22 126.078 471.386 129.448 471.421 132.782C471.451 135.444 471.391 137.754 471.267 139.81Z" fill="#2E69C2"/>
<path d="M431.976 179.507L430.907 182.476L430.234 184.338L428.674 188.667L426.867 193.675H415.248L417.197 188.667L418.101 186.335L419.601 182.476L422.118 175.997L431.976 179.507Z" fill="#FFB6B6"/>
<path d="M467.127 98.8629C467.097 99.246 467.056 99.67 467.014 100.13C466.554 104.807 465.467 113.178 463.878 122.726C463.039 127.763 462.059 133.13 460.954 138.461C458.58 149.965 455.627 161.293 452.289 168.739C451.693 170.082 451.078 171.296 450.452 172.368C449.974 173.187 449.471 173.994 448.946 174.789C447.245 177.399 445.337 179.873 443.358 182.182C443.281 182.282 443.193 182.376 443.104 182.476C442.785 182.853 442.454 183.225 442.124 183.596C440.505 185.416 438.851 187.112 437.251 188.667C435.302 190.564 433.423 192.243 431.74 193.675H412.873L412.797 193.639L410.08 192.438C410.08 192.438 410.853 191.53 412.147 189.816C412.413 189.469 412.696 189.086 413.004 188.667C413.382 188.155 413.789 187.589 414.226 186.977C415.136 185.693 416.169 184.185 417.28 182.476C419.43 179.172 421.881 175.107 424.356 170.4C424.64 169.852 424.929 169.299 425.219 168.739C425.224 168.721 425.236 168.704 425.242 168.686C425.733 167.732 426.217 166.748 426.701 165.746C430.806 157.228 431.982 150.16 432.319 147.868C432.791 144.628 433.446 140.098 433.269 135.115C433.151 131.828 432.673 128.352 431.533 124.9V124.894C431.297 124.17 431.031 123.445 430.73 122.726C430.192 121.436 429.554 120.164 428.798 118.909C425.461 113.384 422.75 113.154 420.594 107.134C419.956 105.349 418.508 101.32 418.951 97.0663V97.0606C419.005 96.5362 419.093 96.0061 419.212 95.4757V95.47C419.241 95.3227 419.282 95.1697 419.324 95.0224C419.66 93.7206 420.216 92.4302 421.06 91.2049C422.708 88.8253 424.958 87.4113 426.973 86.5691L426.979 86.5631C429.306 85.5972 431.314 85.391 431.704 85.3556C440.334 84.5899 447.026 91.8236 450.683 95.7763C452.094 97.3019 453.388 98.5804 454.569 99.6228C463.766 107.811 466.288 102.58 466.943 99.8762C467.044 99.458 467.097 99.0988 467.127 98.8629V98.8629Z" fill="#2E69C2"/>
<path d="M467.156 98.5569C467.156 98.5862 467.15 98.6863 467.127 98.8514C467.138 98.7628 467.145 98.6745 467.15 98.592C467.15 98.5744 467.15 98.5626 467.156 98.5569Z" fill="#2E69C2"/>
<path d="M420.245 222.857H103.616C100.674 222.857 98.2761 225.243 98.2761 228.177C98.2761 231.116 100.674 233.502 103.616 233.502H420.245C423.186 233.502 425.579 231.116 425.579 228.177C425.579 225.243 423.186 222.857 420.245 222.857Z" fill="#E6E6E6"/>
<path d="M349.979 250.356H173.876C170.935 250.356 168.542 252.741 168.542 255.675C168.542 258.608 170.935 261 173.876 261H349.979C352.92 261 355.319 258.608 355.319 255.675C355.319 252.741 352.92 250.356 349.979 250.356Z" fill="#E6E6E6"/>
<path d="M138.849 47.8769L158.804 39.5016L167.363 57.0003L146.393 65.5363L138.849 47.8769Z" fill="#FFB6B6"/>
<path opacity="0.1" d="M138.849 47.8769L158.804 39.5016L167.363 57.0003L146.393 65.5363L138.849 47.8769Z" fill="black"/>
<path d="M141.686 41.2088L161.372 63.8291C161.372 63.8291 147.677 106.936 133.982 110.777C120.288 114.618 95.0385 133.397 95.0385 133.397L63.3698 112.911L78.7762 90.2906C78.7762 90.2906 116.008 39.5016 125.851 39.5016C135.694 39.5016 141.686 41.2088 141.686 41.2088V41.2088Z" fill="#2E69C2"/>
<path d="M115.088 188.668H69.2628L66.3655 184.805L54.5368 169.035L51.815 165.407C51.815 165.407 41.5441 146.628 43.6839 129.556C45.8237 112.484 68.0774 108.643 68.0774 108.643H68.9932L96.2368 132.518L94.6106 154.737L103.238 169.035L115.088 188.668Z" fill="#2F2E41"/>
<path d="M78.6478 188.668H66.3655V170.529L78.6478 188.668Z" fill="#2F2E41"/>
<path d="M343.561 161.131L342.033 169.035L338.241 188.668H262.069C262.664 184.267 263.477 177.934 264.346 171.096C264.432 170.413 264.522 169.726 264.607 169.035C266.786 151.848 269.169 132.398 269.169 132.398L279.183 133.611L298.612 135.958L306.53 136.914L327.731 139.479C338.301 140.755 345.572 150.7 343.561 161.131H343.561Z" fill="#F2F2F2"/>
<path d="M451.358 188.668H410.044C410.673 187.929 411.028 187.503 411.028 187.503L423.413 185.462L448.932 181.263C448.932 181.263 450.096 184.263 451.358 188.668V188.668Z" fill="#2F2E41"/>
<path d="M276.112 56.4135L294.079 81.7543L262.739 82.6877L259.375 58.8733L276.112 56.4135Z" fill="#A0616A"/>
<path opacity="0.1" d="M276.112 56.4135L294.079 81.7543L262.739 82.6877L259.375 58.8733L276.112 56.4135Z" fill="black"/>
<path d="M187.506 108.918C185.201 102.285 179.901 98.0955 175.669 99.5594C171.436 101.023 169.876 107.586 172.183 114.22C173.068 116.883 174.579 119.296 176.591 121.257L186.715 149.236L199.779 144.218L188.412 117.168C188.775 114.385 188.464 111.556 187.506 108.918Z" fill="#A0616A"/>
<path d="M309.126 96.0055L309.102 121.831L306.692 131.37L301.737 150.99L298.129 169.035L295.441 182.479L294.483 187.281C293.759 187.763 293.041 188.224 292.322 188.668H229.725C226.168 186.538 224.178 184.882 224.178 184.882C224.178 184.882 225.163 183.96 226.288 182.479C228.188 179.978 230.486 175.881 229.078 171.967C228.783 171.148 228.706 170.149 228.796 169.035C229.369 161.686 237.098 149.257 237.098 149.257L235.498 130.811L234.796 122.727L239.744 83.3123L255.874 73.9612L258.659 73.6925L286.146 72.2115L297.507 72.8644L298.025 73.0053L309.126 96.0055V96.0055Z" fill="#CCCCCC"/>
<path d="M310.347 188.668H296.652L296.049 182.479L296.036 182.355L299.913 182.091L310 181.404L310.176 185.108L310.313 187.951L310.347 188.668Z" fill="#FFB6B6"/>
<path d="M313.718 102.25L319.471 135.911L314.776 169.035L314.045 174.191L312.752 183.294L312.354 186.094L312.367 186.397L312.465 188.668H296.203L295.604 182.479L295.553 181.924L294.329 169.248L294.307 169.035L291.71 142.155L296.802 122.727L297.179 121.297V121.293L299.395 88.0286L297.679 72.9114L297.661 72.7705C297.696 72.7919 297.726 72.8132 297.76 72.8345C297.85 72.89 297.94 72.9455 298.025 73.0053C308.022 79.3305 313.979 90.4272 313.718 102.25Z" fill="#CCCCCC"/>
<path d="M245.57 89.7625L239.317 83.3118C239.317 83.3118 225.929 89.3307 225.262 92.6699C224.595 96.0092 200.958 145.054 200.958 145.054L190.675 117.663L177.289 126.575C177.289 126.575 188.03 169.102 198.074 171.098C208.119 173.095 241.785 120.764 241.785 120.764L245.57 89.7625H245.57Z" fill="#CCCCCC"/>
<path d="M499.496 168.739H12.4987C5.60561 168.739 0 174.335 0 181.21C0 188.084 5.60561 193.675 12.4987 193.675H499.496C506.389 193.675 512 188.084 512 181.21C512 174.335 506.389 168.739 499.496 168.739Z" fill="#E6E6E6"/>
<path d="M306.276 130.739L305.329 174.803C305.238 179.069 301.744 182.479 297.466 182.479H216.188C212.011 182.479 208.563 179.223 208.335 175.063L205.92 130.999C205.673 126.506 209.26 122.727 213.773 122.727H298.413C302.823 122.727 306.371 126.342 306.276 130.739Z" fill="#3F3D56"/>
<path d="M175.066 58.5136C185.806 58.5136 194.512 49.8308 194.512 39.1202C194.512 28.4095 185.806 19.7267 175.066 19.7267C164.326 19.7267 155.62 28.4095 155.62 39.1202C155.62 49.8308 164.326 58.5136 175.066 58.5136Z" fill="#FFB6B6"/>
<path d="M142.542 89.8639L144.681 112.911L159.232 171.382L146.661 175.776L125.423 112.057L122.49 86.4495L142.542 89.8639Z" fill="#FFB6B6"/>
<path d="M136.754 130.739L135.807 174.803C135.715 179.069 132.222 182.479 127.944 182.479H46.6656C42.4887 182.479 39.0403 179.223 38.8123 175.063L36.3969 130.999C36.1505 126.506 39.7377 122.727 44.2502 122.727H128.89C133.3 122.727 136.848 126.342 136.754 130.739Z" fill="#3F3D56"/>
<path d="M161.549 182.777C170.03 182.777 176.906 179.744 176.906 176.003C176.906 172.261 170.03 169.228 161.549 169.228C153.067 169.228 146.191 172.261 146.191 176.003C146.191 179.744 153.067 182.777 161.549 182.777Z" fill="#FFB6B6"/>
<path d="M112.371 93.3874L121.144 46.7572C121.144 46.7572 145.537 43.3428 146.393 51.452C147.249 59.5611 145.782 99.1918 145.782 99.1918L112.371 93.3874V93.3874Z" fill="#2E69C2"/>
<path d="M167.216 42.1695C167.216 42.1695 179.246 37.8879 184.32 35.5841C189.394 33.2804 199.475 49.3487 199.699 40.8625C199.923 32.3763 196.44 28.8176 196.44 28.8176C196.44 28.8176 195.57 10.2529 176.816 12.5739C176.816 12.5739 180.941 3.28575 167.4 1.8495C153.859 0.413263 132.793 33.0239 134.68 37.8974C136.566 42.7709 138.828 46.8 133.475 52.0108C128.123 57.2217 118.1 86.6303 125.726 94.5439C133.351 102.458 133.852 105.892 128.627 110.815C123.402 115.738 111.052 126.443 124.405 128.302C137.759 130.16 123.184 128.772 133.139 120.039C143.094 111.306 157.621 111.663 152.197 97.6516C146.772 83.6403 156.196 63.5623 155.017 60.5164C153.838 57.4704 157.659 38.1286 157.659 38.1286C157.659 38.1286 166.551 36.8256 167.216 42.1695V42.1695Z" fill="#2F2E41"/>
<path d="M266.506 65.5856C278.197 65.5856 287.674 56.1338 287.674 44.4745C287.674 32.8151 278.197 23.3633 266.506 23.3633C254.815 23.3633 245.337 32.8151 245.337 44.4745C245.337 56.1338 254.815 65.5856 266.506 65.5856Z" fill="#A0616A"/>
<path d="M268.195 16.092C267.583 16.4486 266.762 15.9091 266.566 15.2294C266.369 14.5497 266.598 13.8281 266.825 13.1579L267.967 9.78422C268.777 7.3915 269.637 4.91517 271.391 3.09399C274.039 0.345229 278.247 -0.354044 282.035 0.152555C286.9 0.803129 291.7 3.4302 293.962 7.77439C296.224 12.1186 295.261 18.1803 291.174 20.8907C296.999 27.5492 299.029 34.9699 298.709 43.8007C298.388 52.6315 288.739 60.7587 282.446 66.9796C281.04 66.1301 279.763 62.1487 280.536 60.7023C281.308 59.256 280.201 57.5803 281.158 56.248C282.115 54.9158 282.916 57.0371 281.949 55.7124C281.338 54.8765 283.721 52.9535 282.813 52.4532C278.424 50.0333 276.964 44.5766 274.207 40.398C270.881 35.3578 265.19 31.9445 259.167 31.3783C255.849 31.0663 252.345 31.6313 249.625 33.5523C246.905 35.4733 245.145 38.9061 245.775 42.1697C244.142 40.5158 243.329 38.0921 243.636 35.791C243.942 33.49 245.362 31.3622 247.372 30.1911C246.15 26.161 247.197 21.5252 250.033 18.4066C252.869 15.288 264.375 15.8191 268.515 16.6399L268.195 16.092Z" fill="#2F2E41"/>
<path d="M268.838 31.5006C274.322 32.091 278.282 36.8288 281.626 41.2042C283.553 43.726 285.572 46.511 285.524 49.6814C285.475 52.8868 283.326 55.6361 282.299 58.6739C280.62 63.6391 282.256 69.5467 286.252 72.9488C282.304 73.6961 278.035 70.7435 277.354 66.7935C276.56 62.1951 280.055 57.757 279.641 53.1094C279.277 49.0148 276.041 45.8635 273.291 42.8019C270.54 39.7404 267.957 35.6778 269.222 31.7655L268.838 31.5006Z" fill="#2F2E41"/>
<path d="M350.828 171.407C345.396 174.489 342.586 179.782 344.553 183.229C346.52 186.677 352.518 186.973 357.951 183.89C360.139 182.688 362.006 180.981 363.396 178.912L386.248 165.566L379.739 155.005L357.903 169.283C355.408 169.417 352.982 170.146 350.828 171.407Z" fill="#FFB6B6"/>
<path d="M428.198 73.5406C427.515 73.2707 421.524 71.0077 416.053 73.9955C409.769 77.4276 408.799 85.2624 408.459 88.0104C407.672 94.3582 409.989 95.781 410.478 102.207C411.393 114.231 413.805 100.515 409.953 106.003C408.619 107.902 394.998 137.34 387.487 143.106C372.877 154.321 363.6 162.218 363.6 162.218L374.191 173.692C374.191 173.692 390.927 169.245 405.719 159.666C420.892 149.84 428.479 144.927 434.349 135.317C434.854 134.489 446.948 114.006 440.453 91.3572C438.971 86.1911 436.257 76.7255 428.198 73.5406Z" fill="#2E69C2"/>
<path d="M482.887 130.739L481.94 174.803C481.849 179.069 478.355 182.479 474.077 182.479H392.799C388.622 182.479 385.174 179.223 384.946 175.063L382.53 130.999C382.284 126.506 385.871 122.727 390.384 122.727H475.024C479.433 122.727 482.981 126.342 482.887 130.739Z" fill="#3F3D56"/>
</svg>
