<svg width="47" height="47" viewBox="0 0 47 47" fill="none" xmlns="http://www.w3.org/2000/svg">
<path d="M33.2916 3.91675H13.7083C8.3005 3.91675 3.91663 8.30063 3.91663 13.7084V33.2917C3.91663 38.6995 8.3005 43.0834 13.7083 43.0834H33.2916C38.6994 43.0834 43.0833 38.6995 43.0833 33.2917V13.7084C43.0833 8.30063 38.6994 3.91675 33.2916 3.91675Z" stroke="#0F172A" stroke-width="2" stroke-linecap="round" stroke-linejoin="round"/>
<path d="M31.3333 22.2664C31.575 23.8962 31.2966 25.5607 30.5377 27.0232C29.7789 28.4857 28.5782 29.6716 27.1065 30.4124C25.6347 31.1531 23.9669 31.411 22.3402 31.1492C20.7135 30.8875 19.2107 30.1194 18.0457 28.9544C16.8806 27.7893 16.1126 26.2866 15.8508 24.6599C15.5891 23.0331 15.8469 21.3653 16.5877 19.8936C17.3284 18.4219 18.5144 17.2212 19.9769 16.4623C21.4394 15.7035 23.1039 15.4251 24.7337 15.6668C26.3962 15.9133 27.9353 16.688 29.1237 17.8764C30.3121 19.0648 31.0868 20.6039 31.3333 22.2664Z" stroke="#0F172A" stroke-width="2" stroke-linecap="round" stroke-linejoin="round"/>
<path d="M34.2709 12.7292H34.2905" stroke="#0F172A" stroke-width="2" stroke-linecap="round" stroke-linejoin="round"/>
</svg>
