<svg xmlns="http://www.w3.org/2000/svg" width="47" height="47" fill="none" viewBox="0 0 47 47"><path stroke="#0F172A" stroke-linecap="round" stroke-linejoin="round" stroke-width="2" d="M44.1408 12.5725C43.9081 11.6431 43.4344 10.7916 42.7673 10.1039C42.1002 9.41618 41.2635 8.91669 40.3416 8.65587C36.9733 7.83337 23.4999 7.83337 23.4999 7.83337C23.4999 7.83337 10.0266 7.83337 6.65827 8.73421C5.73638 8.99503 4.89965 9.49451 4.23258 10.1822C3.56551 10.8699 3.09173 11.7215 2.85911 12.6509C2.24265 16.0693 1.94111 19.537 1.95827 23.0105C1.9363 26.5101 2.23786 30.0043 2.85911 33.4484C3.11557 34.3489 3.59996 35.1681 4.26547 35.8267C4.93099 36.4854 5.75513 36.9613 6.65827 37.2084C10.0266 38.1092 23.4999 38.1092 23.4999 38.1092C23.4999 38.1092 36.9733 38.1092 40.3416 37.2084C41.2635 36.9476 42.1002 36.4481 42.7673 35.7604C43.4344 35.0727 43.9081 34.2211 44.1408 33.2917C44.7525 29.8991 45.054 26.4578 45.0416 23.0105C45.0636 19.5108 44.762 16.0167 44.1408 12.5725V12.5725Z"/><path stroke="#0F172A" stroke-linecap="round" stroke-linejoin="round" stroke-width="2" d="M19.0938 29.4142L30.3542 23.0104L19.0938 16.6067V29.4142Z"/></svg>