<svg width="177" height="116" viewBox="0 0 177 116" fill="none" xmlns="http://www.w3.org/2000/svg">
<path d="M163.309 56.0135H19.7811C17.8573 56.0135 16.2921 54.4473 16.2921 52.5219V3.49144C16.2921 1.56625 17.8573 0 19.7811 0H163.309C165.232 0 166.798 1.56625 166.798 3.49144V52.5219C166.798 54.4473 165.232 56.0135 163.309 56.0135ZM19.7811 0.416258C18.0867 0.416258 16.7081 1.79582 16.7081 3.49144V52.5219C16.7081 54.2176 18.0867 55.5972 19.7811 55.5972H163.309C165.003 55.5972 166.382 54.2176 166.382 52.5219V3.49144C166.382 1.79582 165.003 0.416258 163.309 0.416258H19.7811Z" fill="#3F3D56"/>
<path d="M177 114.587H0V114.937H177V114.587Z" fill="#E6E6E6"/>
<path d="M177 96.6877H0V97.038H177V96.6877Z" fill="#E6E6E6"/>
<path d="M80.6638 57.8166C80.7909 59.415 81.7181 60.645 82.7346 60.5639C83.7511 60.4828 84.4718 59.1214 84.3445 57.5224C84.3024 56.883 84.1078 56.263 83.7772 55.7142L83.1532 48.9485L79.9867 49.3092L80.938 55.9407C80.6982 56.5351 80.6042 57.1783 80.6638 57.8166Z" fill="#FFB6B6"/>
<path d="M76.8812 26.2519C76.8812 26.2519 79.8412 24.6839 81.3421 27.0271C82.843 29.3703 83.8789 54.7127 83.8789 54.7127L79.7189 55.1571L78.9303 37.2991L76.8812 26.2519V26.2519Z" fill="#E6E6E6"/>
<path d="M70.7377 95.3656L73.1476 95.3654L74.2941 86.0631L70.7372 86.0634L70.7377 95.3656Z" fill="#FFB6B6"/>
<path d="M78.9945 95.3109C79.0696 95.4374 79.1092 95.8456 79.1092 95.9926C79.1092 96.4447 78.743 96.8112 78.2912 96.8112H70.8278C70.5197 96.8112 70.2698 96.5612 70.2698 96.2528V95.9418C70.2698 95.9418 69.9006 95.0073 70.6607 93.8554C70.6607 93.8554 71.6055 94.7573 73.0172 93.3446L73.4335 92.59L76.4469 94.7954L78.1171 95.0011C78.4826 95.0461 78.8065 94.9941 78.9945 95.3109H78.9945H78.9945Z" fill="#2F2E41"/>
<path d="M84.6837 94.9663L87.0187 94.3692L85.8287 85.0724L82.3826 85.9536L84.6837 94.9663Z" fill="#FFB6B6"/>
<path d="M92.6702 92.8682C92.7742 92.9721 92.9135 93.3578 92.9499 93.5003C93.0617 93.9383 92.7975 94.3841 92.3598 94.496L85.1286 96.3445C84.8301 96.4208 84.5262 96.2405 84.4499 95.9416L84.373 95.6404C84.373 95.6404 83.7841 94.8264 84.2357 93.522C84.2357 93.522 85.3741 94.1619 86.3925 92.4436L86.6092 91.6093L90.0743 92.9997L91.7435 92.7853C92.1087 92.7384 92.4097 92.6078 92.6702 92.8682H92.6702Z" fill="#2F2E41"/>
<path d="M68.7438 24.2522L68.6295 23.4224L69.9876 20.1031L73.7191 19.6882L74.5248 24.4401L68.7438 24.2522Z" fill="#FFB6B6"/>
<path opacity="0.1" d="M68.7438 24.2522L68.6295 23.4224L69.9876 20.1031L73.7191 19.6882L74.5248 24.4401L68.7438 24.2522Z" fill="black"/>
<path d="M64.3904 47.6944L62.7319 52.2583L63.9758 54.7477L70.1949 90.8444H74.3296L73.5118 58.8968L83.0479 90.8444H87.1402L83.8494 69.2694L81.3895 49.354L79.8974 48.4316L72.6826 44.3751L64.3904 47.6944Z" fill="#2F2E41"/>
<path d="M74.963 50.806L72.4753 51.2209L69.1584 43.3378H76.6215L74.963 50.806Z" fill="#E6E6E6"/>
<path d="M79.9383 48.7315L74.963 50.806L73.3045 47.0719L72.4753 51.2209L63.7684 48.4162L65.0123 43.3378L63.7684 26.7416L68.1592 23.8123L68.7438 23.4224L74.1337 23.8373L74.6064 24.0945L77.8652 25.9118L78.6945 39.6036L79.9383 48.7315Z" fill="#2F2E41"/>
<path d="M74.6064 24.0945L72.268 34.0024L68.1592 23.8123L68.7438 23.4224L74.1337 23.8373L74.6064 24.0945Z" fill="#E6E6E6"/>
<path d="M70.6096 23.4224L69.7804 24.8515L70.6096 25.3278L70.195 34.0282L71.8535 36.2844L73.5119 32.9498L72.2681 25.3278L72.6827 23.4224H70.6096Z" fill="#2F2E41"/>
<path d="M71.8534 22.5927C74.0287 22.5927 75.7922 20.8279 75.7922 18.6511C75.7922 16.4742 74.0287 14.7095 71.8534 14.7095C69.678 14.7095 67.9146 16.4742 67.9146 18.6511C67.9146 20.8279 69.678 22.5927 71.8534 22.5927Z" fill="#FFB6B6"/>
<path d="M69.3362 18.9968L70.1872 19.3684L70.5587 17.1383C70.5587 17.1383 72.0443 16.395 73.1586 16.7667C74.2729 17.1383 76.13 16.7667 76.13 16.7667C76.13 16.7667 76.13 13.0498 73.53 13.0498C70.9301 13.0498 68.3301 13.4215 68.3301 14.5365C68.3301 15.6516 67.2158 16.7667 67.2158 16.7667C67.2158 16.7667 65.7302 18.9968 67.2158 20.4835C68.7015 21.9702 69.4444 21.9702 69.4444 21.9702L69.3362 18.9968Z" fill="#2F2E41"/>
<path d="M61.6935 57.7C61.6503 59.3029 62.4417 60.6244 63.4611 60.6518C64.4805 60.6791 65.3416 59.402 65.3845 57.7985C65.4105 57.1583 65.2828 56.5211 65.0123 55.9403L65.1096 49.1465L61.9227 49.1687L62.1651 55.8639C61.8636 56.4294 61.7019 57.059 61.6935 57.7V57.7Z" fill="#FFB6B6"/>
<path d="M65.6363 25.904C65.6363 25.904 62.9413 25.0742 61.6974 27.5636C60.4536 30.0531 62.1121 55.3622 62.1121 55.3622H66.2957L65.1854 37.5213L65.6363 25.904V25.904Z" fill="#E6E6E6"/>
<path d="M169.018 73.055L158.968 69.9763C158.746 69.9082 158.513 69.8833 158.281 69.903L107.346 74.241C106.62 74.3029 106.437 75.2831 107.092 75.6025L108.724 76.398H108.68V114.475H110.218V77.1263L115.331 79.6192C115.722 79.8099 116.159 79.8878 116.592 79.844L117.136 79.789V114.475H118.673V79.6336L158.069 75.6514V114.475H159.607V75.496L166.141 74.8355V114.475H167.678V74.6801L168.87 74.5596C169.707 74.4751 169.823 73.3013 169.018 73.055H169.018Z" fill="#3F3D56"/>
<path d="M122.133 74.0902C123.093 74.0902 137.314 72.3594 137.314 72.3594L139.428 75.244L124.631 78.1287L122.133 74.0902Z" fill="white"/>
<path d="M137.74 112.997L135.27 112.992L134.111 103.453L137.757 103.46L137.74 112.997Z" fill="#A0616A"/>
<path d="M129.275 112.926C129.198 113.056 129.157 113.474 129.157 113.625C129.156 114.088 129.531 114.465 129.994 114.465L137.645 114.479C137.961 114.479 138.218 114.223 138.218 113.907L138.219 113.588C138.219 113.588 138.599 112.631 137.822 111.449C137.822 111.449 136.852 112.372 135.407 110.921L134.981 110.146L131.888 112.402L130.176 112.61C129.801 112.656 129.469 112.602 129.275 112.926H129.275L129.275 112.926Z" fill="#2F2E41"/>
<path d="M151.001 108.561L149.052 110.032L142.452 103.208L145.329 101.037L151.001 108.561Z" fill="#A0616A"/>
<path d="M144.289 113.558C144.306 113.706 144.522 114.061 144.612 114.18C144.888 114.545 145.407 114.618 145.773 114.342L151.809 109.785C152.059 109.597 152.108 109.242 151.92 108.993L151.731 108.741C151.731 108.741 151.459 107.76 150.142 107.292C150.142 107.292 149.928 108.599 147.925 108.318L147.128 107.962L146.035 111.586L144.81 112.772C144.542 113.031 144.248 113.187 144.289 113.558L144.289 113.558Z" fill="#2F2E41"/>
<path d="M145.837 59.2626C145.837 61.5426 143.99 63.3909 141.712 63.3909C139.433 63.3909 137.586 61.5426 137.586 59.2626C137.586 56.9826 139.433 55.1343 141.712 55.1343C143.99 55.1343 145.837 56.9826 145.837 59.2626Z" fill="#A0616A"/>
<path d="M145.449 83.0657C145.449 83.0657 130.259 82.2053 129.399 83.9261C128.54 85.6468 134.048 109.283 134.048 109.283L138.961 108.253L136.564 91.6695C136.564 91.6695 149.239 95.0287 150.959 91.0136C152.678 86.9985 152.183 85.5034 152.183 85.5034L145.449 83.0657Z" fill="#2F2E41"/>
<path d="M149.34 80.1772C149.34 80.1772 134.464 83.3684 134.09 85.2555C133.716 87.1426 145.276 108.479 145.276 108.479L149.742 106.184L143.047 90.8264C143.047 90.8264 156.158 90.7106 156.755 86.3833C157.352 82.056 156.48 80.7453 156.48 80.7453L149.34 80.1772Z" fill="#2F2E41"/>
<path d="M151.037 63.9939H143.89L139 72.0241C139 72.0241 137.854 77.2135 139 77.7735C140.147 78.3336 140.147 84.3562 140.147 84.3562L152.183 85.5034C152.183 85.5034 153.903 67.4354 153.33 65.7147C152.757 63.9939 151.037 63.9939 151.037 63.9939Z" fill="#2E69C2"/>
<path d="M139.717 69.2996L139 77.7735L130.941 74.3509L129.018 73.3829C128.641 72.8913 128.153 72.4972 127.592 72.2334C126.199 71.5541 124.721 71.7224 124.289 72.6091C123.857 73.4959 124.636 74.7653 126.028 75.4442C126.581 75.7232 127.193 75.8657 127.812 75.8597L133.439 79.0582L133.446 79.0457L133.471 79.0903L142.296 82.7788L144.327 71.6545L139.717 69.2996H139.717Z" fill="#A0616A"/>
<path d="M138.857 59.8354C138.857 59.8354 134.558 60.409 136.278 56.6806C136.278 56.6806 136.015 54.6595 137.293 54.5229C138.57 54.3863 140.29 52.092 140.29 52.092C140.29 52.092 144.232 50.0844 146.273 52.092C148.314 54.0995 154.333 65.858 154.333 65.858L150.321 70.1599C150.321 70.1599 147.908 63.8143 145.102 64.5494C142.296 65.2844 139.717 67.476 139.717 67.476C139.717 67.476 136.869 66.0498 138.149 64.8068C139.43 63.5637 138.857 59.8354 138.857 59.8354Z" fill="#2F2E41"/>
<path d="M144.589 66.1448C144.589 66.1448 142.583 63.5637 141.15 65.5712C139.717 67.5788 138.57 70.1599 138.57 70.1599L144.302 72.1675L144.589 66.1448H144.589Z" fill="#2E69C2"/>
<path d="M166.352 113.905L159.692 92.7232L159.693 92.7232H159.709L159.682 92.6885L159.681 92.6878L159.207 91.1791L159.207 91.1789C159.93 90.5558 160.422 89.6654 160.52 88.6404L157.476 71.8863C157.685 69.6863 156 67.7631 153.792 67.6843L146.923 67.667C144.971 67.5978 143.28 69.0093 142.995 70.944L142.843 71.9709L140.739 86.2961C140.662 86.8115 140.693 87.3192 140.814 87.7942L139.3 87.9923L138.84 88.0539L137.024 88.2904L137.019 88.2923L136.792 88.3212H136.546V94.4751H136.561V114.145C136.561 114.272 136.665 114.375 136.792 114.375C136.921 114.375 137.024 114.272 137.024 114.145V94.4751H139.719L142.407 114.122C142.424 114.237 142.522 114.322 142.638 114.322C142.647 114.322 142.659 114.322 142.668 114.32C142.795 114.302 142.884 114.185 142.866 114.058L140.188 94.4751H153.115C154.399 94.4751 155.588 94.0675 156.557 93.3695L161.682 114.086C161.709 114.19 161.803 114.26 161.907 114.26C161.925 114.26 161.945 114.258 161.964 114.253C162.088 114.221 162.162 114.095 162.131 113.971L156.956 93.0549C157.025 92.9975 157.093 92.9363 157.159 92.8732L159.216 92.7521L165.91 114.044C165.941 114.143 166.032 114.206 166.131 114.206C166.154 114.206 166.177 114.202 166.2 114.195C166.322 114.157 166.39 114.027 166.352 113.905ZM158.767 91.5078C158.784 91.4981 158.8 91.4866 158.815 91.477L158.815 91.4769L158.865 91.6342L158.767 91.5078Z" fill="#E6E6E6"/>
<path d="M35.6825 78.0015L40.1643 75.1493L41.9864 76.2492L35.6825 83.4978V78.0015Z" fill="#FFB6B6"/>
<path d="M29.5537 66.9618C29.5537 66.9618 26.5769 67.6628 27.9777 71.6931C29.3786 75.7234 33.9314 84.1346 35.3323 83.6089C36.7332 83.0832 36.9083 77.8262 36.9083 77.8262C36.9083 77.8262 36.7332 78.0015 36.0327 77.3005C35.3323 76.5996 35.3323 76.9197 35.3323 76.1463C35.3323 75.373 34.7594 74.7997 34.7594 74.7997L34.1065 73.4454C34.1065 73.4454 34.1065 67.1371 31.4799 66.7866C28.8533 66.4361 29.5537 66.9618 29.5537 66.9618L29.5537 66.9618Z" fill="#E6E6E6"/>
<path d="M43.4616 76.0607C44.6242 74.8973 44.9845 73.3718 44.2665 72.6532C43.5484 71.9347 42.0239 72.2953 40.8614 73.4586C39.6989 74.622 39.3386 76.1476 40.0566 76.8661C40.7746 77.5846 42.2991 77.224 43.4616 76.0607Z" fill="#FFB6B6"/>
<path d="M17.9589 90.1802L21.0171 95.2456L38.8389 94.1903L34.0934 88.0696L17.9589 90.1802Z" fill="#E6E6E6"/>
<path d="M23.2841 113.871C23.1803 113.871 23.0898 113.795 23.0754 113.689L17.7499 74.7674C17.7341 74.6519 17.8148 74.5454 17.9302 74.5296C18.0456 74.5129 18.1519 74.5946 18.1678 74.7101L23.4933 113.632C23.5091 113.747 23.4283 113.854 23.313 113.869C23.3032 113.871 23.2936 113.871 23.2841 113.871Z" fill="#E6E6E6"/>
<path d="M17.9588 113.921C17.8424 113.921 17.7479 113.826 17.7479 113.71V74.7463C17.7479 74.6298 17.8424 74.5353 17.9588 74.5353C18.0753 74.5353 18.1697 74.6298 18.1697 74.7463V113.71C18.1697 113.826 18.0753 113.921 17.9588 113.921Z" fill="#E6E6E6"/>
<path d="M44.6915 113.766C44.6019 113.766 44.5187 113.708 44.4904 113.618L31.8886 73.5358C31.8536 73.4246 31.9153 73.3061 32.0265 73.2711C32.1375 73.2362 32.256 73.298 32.2909 73.4091L44.8928 113.491C44.9277 113.603 44.866 113.721 44.7549 113.756C44.7338 113.763 44.7125 113.766 44.6915 113.766Z" fill="#E6E6E6"/>
<path d="M40.8423 113.815C40.7482 113.815 40.6624 113.752 40.6381 113.656L31.8853 78.2808C31.8567 78.1679 31.9249 78.053 32.0377 78.0242C32.151 77.9957 32.2654 78.0638 32.2942 78.1767L41.0469 113.552C41.0756 113.665 41.0074 113.78 40.8945 113.809C40.877 113.813 40.8595 113.815 40.8423 113.815H40.8423Z" fill="#E6E6E6"/>
<path d="M17.9589 75.367L32.5643 75.1422L35.2534 90.4967H18.1698L17.9589 75.367Z" fill="#E6E6E6"/>
<path d="M40.4038 97.9447L36.7229 104.43L40.9967 105.371L42.7784 100.759L40.4038 97.9447Z" fill="#FFB6B6"/>
<path d="M38.045 103.205C38.045 103.205 37.902 102.148 37.0611 102.483C36.2202 102.819 33.7935 104.066 33.7935 104.066C33.7935 104.066 40.1231 114.358 41.3244 113.879C42.5256 113.399 41.0876 110.49 41.0876 110.49L41.405 105.348L38.045 103.205H38.045Z" fill="#2F2E41"/>
<path d="M24.1253 85.3611C24.1253 85.3611 22.812 91.4066 26.8395 93.5094C30.867 95.6122 44.613 90.4429 44.613 90.4429L38.3091 99.8951L42.6868 101.658C42.6868 101.658 52.668 88.5153 51.9676 86.4125C51.2671 84.3098 46.5392 84.1345 46.5392 84.1345L35.8576 84.6602L33.0558 83.7841L24.1253 85.3611H24.1253Z" fill="#2F2E41"/>
<path d="M34.9583 100.823L29.1716 105.523L32.81 107.956L36.1468 104.309L34.9583 100.823Z" fill="#FFB6B6"/>
<path d="M30.8483 104.864C30.8483 104.864 31.0997 103.827 30.1944 103.833C29.2891 103.84 26.5752 104.118 26.5752 104.118C26.5752 104.118 28.7284 116.009 30.0216 116C31.3149 115.991 31.0334 112.757 31.0334 112.757L33.199 108.083L30.8483 104.864Z" fill="#2F2E41"/>
<path d="M24.3715 83.1743C24.3715 83.1743 20.9499 88.3271 23.9367 91.7523C26.9234 95.1775 41.6068 95.368 41.6068 95.368L32.298 101.877L35.7346 105.113C35.7346 105.113 49.8105 96.5058 49.9227 94.2921C50.0349 92.0784 45.6948 90.1936 45.6948 90.1936L35.5543 86.7936L33.2632 84.9573L24.3715 83.1743H24.3715Z" fill="#2F2E41"/>
<path d="M33.1613 71.2392C33.1613 71.2392 29.8343 70.0126 28.2583 70.0126C28.1077 70.0126 27.9588 70.0301 27.81 70.0617C26.8014 70.2755 25.8733 71.1429 25.4285 71.616C25.2552 71.8017 25.1554 71.9261 25.1554 71.9261C25.1554 71.9261 25.1659 71.8052 25.1869 71.5932C25.2902 70.4787 25.6719 66.8216 26.3566 64.4805C26.6018 63.6447 26.8837 62.977 27.2076 62.6529C27.9624 61.8959 28.3108 60.9882 28.4719 60.3118C28.6085 59.7317 28.6085 59.3235 28.6085 59.3235L27.332 58.7732L27.0956 57.2277C27.0535 57.4099 26.8592 57.7656 26.206 58.4473C26.15 58.5051 26.0887 58.5542 26.0239 58.5962C25.0818 59.1885 23.1609 58.1582 22.126 57.5098C22.5567 56.0116 23.3377 54.6412 24.7561 54.417C28.0832 53.8913 28.0832 51.9637 30.1845 54.0665C30.3578 54.24 30.5329 54.4064 30.7081 54.5677C31.3805 55.8539 31.6256 57.5781 31.7132 58.7767C31.7762 59.6161 31.7605 60.1996 31.7605 60.1996C31.7605 60.1996 32.636 65.4566 34.0369 66.508C35.4377 67.5594 33.1613 71.2392 33.1613 71.2392Z" fill="#2F2E41"/>
<path d="M26.6823 62.8281L24.3163 66.3011L29.6592 67.7346V62.8281H26.6823Z" fill="#FFB6B6"/>
<path opacity="0.1" d="M26.6823 62.8281L24.3163 66.3011L29.6592 67.7346V62.8281H26.6823Z" fill="black"/>
<path d="M29.9915 66.1732L24.9133 64.0704C24.9133 64.0704 18.0841 67.0494 18.6094 72.832C19.1347 78.6147 24.0378 88.6029 24.0378 88.6029L33.8438 84.3974L32.7932 73.1825L29.9915 66.1732Z" fill="#E6E6E6"/>
<path d="M27.8141 64.3786C30.2885 64.3786 32.2943 62.3714 32.2943 59.8953C32.2943 57.4192 30.2885 55.412 27.8141 55.412C25.3398 55.412 23.334 57.4192 23.334 59.8953C23.334 62.3714 25.3398 64.3786 27.8141 64.3786Z" fill="#FFB6B6"/>
<path d="M33.8617 58.2721C32.9862 59.1482 32.2858 60.0244 32.2858 60.0244L31.9355 58.6225C31.9355 58.6225 31.855 58.6821 31.7131 58.7767C31.1581 59.1552 29.6679 60.1067 28.4719 60.3118C27.9396 60.4029 27.4668 60.3451 27.1586 60.0244C26.5054 59.3427 26.311 58.987 26.269 58.8048L26.0326 60.3503L24.7561 60.9005C24.7561 60.9005 24.7561 62.8246 26.157 64.23C26.2252 64.2983 26.2918 64.3824 26.3566 64.4805C27.0255 65.4899 27.5053 67.9606 27.81 70.0617C28.0796 71.9297 28.2092 73.5032 28.2092 73.5032C28.2092 73.5032 26.8837 71.842 25.4285 71.616C25.3479 71.6037 25.2674 71.595 25.1869 71.5932C25.1606 71.5897 25.1326 71.5897 25.1063 71.5897C23.5303 71.5897 20.2033 72.8163 20.2033 72.8163C20.2033 72.8163 17.9268 69.1365 19.3277 68.0851C20.7286 67.0337 21.6041 61.7767 21.6041 61.7767C21.6041 61.7767 21.5463 59.5267 22.1259 57.5098C22.5567 56.0116 23.3377 54.6413 24.7561 54.417C28.0831 53.8913 28.0831 51.9637 30.1845 54.0665C30.3578 54.24 30.5329 54.4064 30.708 54.5677C32.6657 56.3691 34.6655 57.4677 33.8617 58.2721Z" fill="#2F2E41"/>
<path d="M14.2122 81.7947H12.5483V114.679H14.2122V81.7947Z" fill="#3F3D56"/>
<path d="M54.5607 81.7947H52.8969V114.679H54.5607V81.7947Z" fill="#3F3D56"/>
<path d="M43.9536 67.85H32.9305V78.8808H43.9536V67.85Z" fill="#2E69C2"/>
<path d="M26.5768 79.5785L31.0586 76.7263L32.8807 77.8262L26.5768 85.0749V79.5785Z" fill="#FFB6B6"/>
<path d="M20.448 68.5389C20.448 68.5389 17.4712 69.2398 18.872 73.2701C20.2729 77.3005 24.8257 85.7116 26.2266 85.1859C27.6275 84.6602 27.8026 79.4033 27.8026 79.4033C27.8026 79.4033 27.6275 79.5785 26.927 78.8776C26.2266 78.1766 26.2266 78.4967 26.2266 77.7234C26.2266 76.95 25.6537 76.3767 25.6537 76.3767L25.0008 75.0225C25.0008 75.0225 25.0008 68.7141 22.3742 68.3636C19.7476 68.0132 20.448 68.5389 20.448 68.5389H20.448Z" fill="#E6E6E6"/>
<path d="M34.3559 77.6377C35.5185 76.4744 35.8788 74.9488 35.1608 74.2303C34.4427 73.5117 32.9182 73.8723 31.7557 75.0357C30.5932 76.199 30.2328 77.7246 30.9509 78.4431C31.6689 79.1617 33.1934 78.8011 34.3559 77.6377Z" fill="#FFB6B6"/>
<path d="M57.8885 80.5459H7.55676V84.2922H57.8885V80.5459Z" fill="#3F3D56"/>
<path d="M109.025 50.5753H101.592C101.003 50.5753 100.525 51.0533 100.525 51.643V54.7109C100.525 55.3005 101.003 55.7785 101.592 55.7785H109.025C109.614 55.7785 110.092 55.3005 110.092 54.7109V51.643C110.092 51.0533 109.614 50.5753 109.025 50.5753Z" fill="#3F3D56"/>
<path d="M124.624 53.6432H117.19C116.601 53.6432 116.124 54.1212 116.124 54.7109V54.7109C116.124 55.3005 116.601 55.7786 117.19 55.7786H124.624C125.213 55.7786 125.691 55.3005 125.691 54.7109C125.691 54.1212 125.213 53.6432 124.624 53.6432Z" fill="#2E69C2"/>
</svg>
