<svg width="177" height="175" viewBox="0 0 177 175" fill="none" xmlns="http://www.w3.org/2000/svg">
<path d="M132.017 41.5142H131.058V15.219C131.058 13.2204 130.665 11.2414 129.901 9.39493C129.136 7.54848 128.016 5.87075 126.604 4.45754C125.192 3.04433 123.516 1.92331 121.671 1.15848C119.826 0.393653 117.849 1.89138e-06 115.852 0H60.189C56.156 -8.91272e-06 52.2883 1.6034 49.4366 4.4575C46.5849 7.3116 44.9828 11.1826 44.9828 15.2189V159.477C44.9828 163.513 46.5849 167.384 49.4366 170.238C52.2883 173.092 56.156 174.695 60.1889 174.695H115.852C119.885 174.695 123.753 173.092 126.604 170.238C129.456 167.384 131.058 163.513 131.058 159.477V60.2316H132.017L132.017 41.5142Z" fill="#E6E6E6"/>
<path d="M127.822 15.3252V159.371C127.822 162.385 126.625 165.276 124.495 167.407C122.366 169.539 119.477 170.736 116.465 170.736H60.5352C57.5233 170.736 54.6348 169.539 52.5051 167.407C50.3754 165.276 49.1789 162.385 49.1789 159.371V15.3252C49.179 12.3108 50.3754 9.41984 52.5051 7.28834C54.6349 5.15684 57.5233 3.95935 60.5352 3.95929H67.3202C66.9868 4.77926 66.8598 5.66866 66.9505 6.54927C67.0411 7.42987 67.3466 8.27469 67.84 9.0094C68.3334 9.74412 68.9997 10.3462 69.7802 10.7628C70.5607 11.1793 71.4315 11.3975 72.316 11.3981H104.205C105.089 11.3975 105.96 11.1793 106.741 10.7627C107.521 10.3462 108.187 9.7441 108.681 9.00939C109.174 8.27467 109.48 7.42986 109.57 6.54926C109.661 5.66866 109.534 4.77926 109.201 3.95929H116.465C119.477 3.95935 122.366 5.15684 124.495 7.28834C126.625 9.41984 127.822 12.3108 127.822 15.3252Z" fill="#0F172A"/>
<path d="M73.0553 43.4566H64.4662C63.7585 43.4558 63.0801 43.1741 62.5797 42.6733C62.0793 42.1725 61.7978 41.4935 61.797 40.7852V32.1889C61.7978 31.4806 62.0793 30.8016 62.5797 30.3008C63.0801 29.8 63.7585 29.5183 64.4662 29.5175H73.0553C73.763 29.5183 74.4414 29.8 74.9418 30.3008C75.4422 30.8016 75.7237 31.4806 75.7245 32.1889V40.7852C75.7237 41.4935 75.4422 42.1725 74.9418 42.6733C74.4414 43.1741 73.763 43.4558 73.0553 43.4566Z" fill="#2E69C2"/>
<path d="M92.7948 43.4566H84.2057C83.498 43.4558 82.8196 43.1741 82.3192 42.6733C81.8188 42.1725 81.5373 41.4935 81.5365 40.7852V32.1889C81.5373 31.4806 81.8188 30.8016 82.3192 30.3008C82.8196 29.8 83.498 29.5183 84.2057 29.5175H92.7948C93.5024 29.5183 94.1809 29.8 94.6813 30.3008C95.1817 30.8016 95.4632 31.4806 95.464 32.1889V40.7852C95.4632 41.4935 95.1817 42.1725 94.6813 42.6733C94.1809 43.1741 93.5024 43.4558 92.7948 43.4566Z" fill="#2E69C2"/>
<path d="M112.534 43.4566H103.945C103.238 43.4558 102.559 43.1741 102.059 42.6733C101.558 42.1725 101.277 41.4935 101.276 40.7852V32.1889C101.277 31.4806 101.558 30.8016 102.059 30.3008C102.559 29.8 103.238 29.5183 103.945 29.5175H112.534C113.242 29.5183 113.92 29.8 114.421 30.3008C114.921 30.8016 115.203 31.4806 115.203 32.1889V40.7852C115.203 41.4935 114.921 42.1725 114.421 42.6733C113.92 43.1741 113.242 43.4558 112.534 43.4566Z" fill="#E6E6E6"/>
<path d="M73.0553 65.4223H64.4662C63.7585 65.4215 63.0801 65.1398 62.5797 64.639C62.0793 64.1382 61.7978 63.4592 61.797 62.7509V54.1546C61.7978 53.4463 62.0793 52.7673 62.5797 52.2665C63.0801 51.7657 63.7585 51.484 64.4662 51.4832H73.0553C73.763 51.484 74.4414 51.7657 74.9418 52.2665C75.4422 52.7673 75.7237 53.4463 75.7245 54.1546V62.7509C75.7237 63.4592 75.4422 64.1382 74.9418 64.639C74.4414 65.1398 73.763 65.4215 73.0553 65.4223Z" fill="#E6E6E6"/>
<path d="M92.7948 65.4223H84.2057C83.498 65.4215 82.8196 65.1398 82.3192 64.639C81.8188 64.1382 81.5373 63.4592 81.5365 62.7509V54.1546C81.5373 53.4463 81.8188 52.7673 82.3192 52.2665C82.8196 51.7657 83.498 51.484 84.2057 51.4832H92.7948C93.5024 51.484 94.1809 51.7657 94.6813 52.2665C95.1817 52.7673 95.4632 53.4463 95.464 54.1546V62.7509C95.4632 63.4592 95.1817 64.1382 94.6813 64.639C94.1809 65.1398 93.5024 65.4215 92.7948 65.4223Z" fill="#E6E6E6"/>
<path d="M112.534 65.4223H103.945C103.238 65.4215 102.559 65.1398 102.059 64.639C101.558 64.1382 101.277 63.4592 101.276 62.7509V54.1546C101.277 53.4463 101.558 52.7673 102.059 52.2665C102.559 51.7657 103.238 51.484 103.945 51.4832H112.534C113.242 51.484 113.92 51.7657 114.421 52.2665C114.921 52.7673 115.203 53.4463 115.203 54.1546V62.7509C115.203 63.4592 114.921 64.1382 114.421 64.639C113.92 65.1398 113.242 65.4215 112.534 65.4223Z" fill="#E6E6E6"/>
<path d="M73.0553 87.3839H64.4662C63.7585 87.3831 63.0801 87.1014 62.5797 86.6005C62.0793 86.0997 61.7978 85.4207 61.797 84.7124V76.1162C61.7978 75.4079 62.0793 74.7289 62.5797 74.228C63.0801 73.7272 63.7585 73.4455 64.4662 73.4447H73.0553C73.763 73.4455 74.4414 73.7272 74.9418 74.228C75.4422 74.7289 75.7237 75.4079 75.7245 76.1162V84.7124C75.7237 85.4207 75.4422 86.0997 74.9418 86.6005C74.4414 87.1014 73.763 87.3831 73.0553 87.3839Z" fill="#E6E6E6"/>
<path d="M92.7948 87.3839H84.2057C83.498 87.3831 82.8196 87.1014 82.3192 86.6005C81.8188 86.0997 81.5373 85.4207 81.5365 84.7124V76.1162C81.5373 75.4079 81.8188 74.7289 82.3192 74.228C82.8196 73.7272 83.498 73.4455 84.2057 73.4447H92.7948C93.5024 73.4455 94.1809 73.7272 94.6813 74.228C95.1817 74.7289 95.4632 75.4079 95.464 76.1162V84.7124C95.4632 85.4207 95.1817 86.0997 94.6813 86.6005C94.1809 87.1014 93.5024 87.3831 92.7948 87.3839Z" fill="#E6E6E6"/>
<path d="M112.534 87.3839H103.945C103.238 87.3831 102.559 87.1014 102.059 86.6005C101.558 86.0997 101.277 85.4207 101.276 84.7124V76.1162C101.277 75.4079 101.558 74.7289 102.059 74.228C102.559 73.7272 103.238 73.4455 103.945 73.4447H112.534C113.242 73.4455 113.92 73.7272 114.421 74.228C114.921 74.7289 115.203 75.4079 115.203 76.1162V84.7124C115.203 85.4207 114.921 86.0997 114.421 86.6005C113.92 87.1014 113.242 87.3831 112.534 87.3839Z" fill="#E6E6E6"/>
<path d="M73.0553 109.35H64.4662C63.7585 109.349 63.0801 109.067 62.5797 108.566C62.0793 108.065 61.7978 107.386 61.797 106.678V98.0819C61.7978 97.3736 62.0793 96.6946 62.5797 96.1937C63.0801 95.6929 63.7585 95.4112 64.4662 95.4104H73.0553C73.763 95.4112 74.4414 95.6929 74.9418 96.1937C75.4422 96.6946 75.7237 97.3736 75.7245 98.0819V106.678C75.7237 107.386 75.4422 108.065 74.9418 108.566C74.4414 109.067 73.763 109.349 73.0553 109.35Z" fill="#E6E6E6"/>
<path d="M92.7948 109.35H84.2057C83.498 109.349 82.8196 109.067 82.3192 108.566C81.8188 108.065 81.5373 107.386 81.5365 106.678V98.0819C81.5373 97.3736 81.8188 96.6946 82.3192 96.1937C82.8196 95.6929 83.498 95.4112 84.2057 95.4104H92.7948C93.5024 95.4112 94.1809 95.6929 94.6813 96.1937C95.1817 96.6946 95.4632 97.3736 95.464 98.0819V106.678C95.4632 107.386 95.1817 108.065 94.6813 108.566C94.1809 109.067 93.5024 109.349 92.7948 109.35Z" fill="#E6E6E6"/>
<path d="M112.534 109.35H103.945C103.238 109.349 102.559 109.067 102.059 108.566C101.558 108.065 101.277 107.386 101.276 106.678V98.0819C101.277 97.3736 101.558 96.6946 102.059 96.1937C102.559 95.6929 103.238 95.4112 103.945 95.4104H112.534C113.242 95.4112 113.92 95.6929 114.421 96.1937C114.921 96.6946 115.203 97.3736 115.203 98.0819V106.678C115.203 107.386 114.921 108.065 114.421 108.566C113.92 109.067 113.242 109.349 112.534 109.35Z" fill="#E6E6E6"/>
<path d="M98.3193 106.802H89.7302C88.9907 106.801 88.2818 106.507 87.7589 105.984C87.236 105.46 86.9419 104.751 86.941 104.011V95.4144C86.9419 94.6744 87.236 93.9648 87.7589 93.4415C88.2818 92.9182 88.9907 92.6239 89.7302 92.623H98.3193C99.0587 92.6239 99.7676 92.9182 100.291 93.4415C100.813 93.9649 101.108 94.6744 101.108 95.4144V104.011C101.108 104.751 100.813 105.46 100.291 105.984C99.7677 106.507 99.0587 106.801 98.3193 106.802Z" fill="#2E69C2"/>
<path d="M57.6799 128.986C58.0046 128.824 58.2899 128.593 58.5157 128.309C58.7415 128.025 58.9023 127.695 58.9869 127.342C59.0715 126.989 59.0777 126.622 59.0051 126.266C58.9326 125.911 58.783 125.575 58.5669 125.284L60.4217 107.134H56.4134L54.9393 124.857C54.4742 125.252 54.1702 125.805 54.085 126.41C53.9998 127.015 54.1394 127.63 54.4772 128.139C54.815 128.648 55.3276 129.016 55.9179 129.172C56.5082 129.328 57.1351 129.261 57.6799 128.986Z" fill="#FFB8B8"/>
<path d="M61.3603 97.118C64.4923 97.118 67.0313 94.5769 67.0313 91.4423C67.0313 88.3077 64.4923 85.7665 61.3603 85.7665C58.2283 85.7665 55.6893 88.3077 55.6893 91.4423C55.6893 94.5769 58.2283 97.118 61.3603 97.118Z" fill="#FFB8B8"/>
<path d="M62.4279 117.704C62.2009 117.704 61.9802 117.629 61.7996 117.492C61.6191 117.354 61.4886 117.161 61.4283 116.942C60.974 115.29 59.7919 112.496 57.915 108.639C57.4915 107.767 57.257 106.815 57.2268 105.846C57.1967 104.877 57.3716 103.913 57.7401 103.016C58.1086 102.119 58.6623 101.311 59.365 100.643C60.0677 99.9761 60.9034 99.4649 61.8173 99.1435C62.6834 98.8374 63.602 98.7083 64.5188 98.7638C65.4357 98.8193 66.3321 99.0583 67.155 99.4666C67.9779 99.8749 68.7107 100.444 69.3099 101.141C69.9091 101.838 70.3626 102.648 70.6436 103.523C72.0984 108.088 72.0282 112.977 71.9304 114.868C71.9183 115.095 71.8319 115.313 71.6845 115.487C71.5372 115.66 71.3369 115.781 71.1144 115.83L62.6507 117.68C62.5775 117.696 62.5028 117.704 62.4279 117.704Z" fill="#CCCCCC"/>
<path d="M70.624 171.6L73.4548 171.6L74.8014 160.673L70.6235 160.673L70.624 171.6Z" fill="#FFB8B8"/>
<path d="M78.914 174.231L70.0175 174.231L70.0174 170.791L75.4766 170.791C75.928 170.791 76.3749 170.88 76.792 171.053C77.209 171.225 77.5879 171.479 77.9071 171.798C78.2263 172.118 78.4795 172.497 78.6523 172.914C78.8251 173.332 78.914 173.779 78.914 174.231Z" fill="#2F2E41"/>
<path d="M42.3186 167.929L44.7992 169.293L51.2398 160.367L47.5787 158.353L42.3186 167.929Z" fill="#FFB8B8"/>
<path d="M48.3167 174.231L40.5207 169.941L42.1767 166.927L46.9606 169.559C47.7595 169.999 48.3511 170.738 48.6054 171.614C48.8598 172.49 48.7559 173.432 48.3167 174.231Z" fill="#2F2E41"/>
<path d="M70.4918 165.535C70.2396 165.535 69.996 165.443 69.8066 165.276C69.6172 165.109 69.4949 164.879 69.4624 164.629L65.9223 137.326C65.9067 137.206 65.8533 137.093 65.7698 137.004C65.6863 136.916 65.577 136.856 65.4575 136.833C65.3379 136.81 65.2143 136.826 65.1042 136.878C64.9941 136.93 64.9032 137.015 64.8444 137.122L50.0907 163.912C49.9689 164.13 49.7728 164.298 49.5379 164.384C49.3031 164.471 49.0451 164.47 48.8109 164.382L45.595 163.155C45.4657 163.106 45.3475 163.031 45.2474 162.936C45.1473 162.84 45.0673 162.725 45.0121 162.598C44.9569 162.471 44.9276 162.335 44.926 162.196C44.9243 162.058 44.9504 161.92 45.0026 161.792L55.2228 136.664C55.2487 136.6 55.2663 136.533 55.275 136.465C56.6593 125.742 60.1814 120.289 61.2279 118.873C61.3043 118.769 61.3546 118.648 61.3745 118.52C61.3944 118.392 61.3834 118.262 61.3424 118.139L61.1985 117.708C61.141 117.536 61.1292 117.353 61.1643 117.175C61.1994 116.998 61.2801 116.833 61.3984 116.696C65.1692 112.397 71.7415 114.743 71.8075 114.767L71.8404 114.779L71.861 114.808C79.2306 124.923 76.5058 157.777 75.8847 164.26C75.8616 164.504 75.753 164.732 75.5784 164.903C75.4037 165.074 75.1741 165.178 74.9302 165.196L70.5725 165.532C70.5454 165.534 70.5185 165.535 70.4918 165.535Z" fill="#2F2E41"/>
<path d="M83.4069 98.0353C83.3785 98.16 83.36 98.2867 83.3516 98.4143L73.433 104.141L71.0222 102.752L68.4521 106.12L72.4813 108.994C72.8068 109.226 73.1987 109.346 73.5983 109.336C73.9979 109.327 74.3836 109.187 74.6974 108.94L84.9251 100.864C85.3867 101.035 85.8894 101.061 86.3663 100.94C86.8431 100.818 87.2716 100.553 87.5948 100.182C87.9179 99.8102 88.1203 99.3489 88.1751 98.8594C88.23 98.3699 88.1346 97.8752 87.9017 97.4413C87.6688 97.0073 87.3094 96.6546 86.8713 96.4301C86.4332 96.2056 85.9372 96.1198 85.4493 96.1843C84.9613 96.2488 84.5045 96.4604 84.1397 96.7911C83.7749 97.1217 83.5192 97.5557 83.4069 98.0353Z" fill="#FFB8B8"/>
<path d="M73.1015 104.412L69.8958 108.57C69.8046 108.689 69.689 108.786 69.5568 108.856C69.4247 108.925 69.2791 108.965 69.13 108.974C68.9809 108.982 68.8318 108.958 68.6929 108.903C68.5539 108.848 68.4284 108.764 68.3248 108.657L64.6958 104.885C64.0939 104.414 63.703 103.724 63.6088 102.966C63.5145 102.207 63.7245 101.442 64.1928 100.838C64.6612 100.234 65.3496 99.841 66.1072 99.7443C66.8648 99.6476 67.6299 99.8555 68.2346 100.322L72.7862 102.87C72.9165 102.943 73.0296 103.043 73.1177 103.163C73.2058 103.284 73.2669 103.422 73.2968 103.569C73.3267 103.715 73.3247 103.866 73.291 104.012C73.2573 104.157 73.1927 104.294 73.1015 104.412Z" fill="#CCCCCC"/>
<path d="M60.6768 111.637L55.5126 110.703C55.3657 110.677 55.2262 110.619 55.1037 110.534C54.9811 110.448 54.8784 110.337 54.8025 110.209C54.7266 110.08 54.6793 109.936 54.6639 109.788C54.6484 109.639 54.6651 109.489 54.7129 109.347L56.387 104.387C56.527 103.635 56.9591 102.97 57.5885 102.536C58.218 102.103 58.9934 101.937 59.7447 102.075C60.4961 102.213 61.1621 102.644 61.5967 103.273C62.0313 103.902 62.1991 104.677 62.0632 105.43L61.8999 110.646C61.8952 110.796 61.8583 110.942 61.7919 111.076C61.7255 111.21 61.631 111.328 61.5149 111.422C61.3988 111.516 61.2639 111.584 61.1193 111.621C60.9746 111.658 60.8237 111.663 60.6768 111.637H60.6768Z" fill="#CCCCCC"/>
<path d="M62.2579 90.1368C63.7154 91.1352 65.6293 92.1615 67.1179 91.0983C67.5836 90.7434 67.9219 90.2471 68.0822 89.6837C68.2424 89.1203 68.216 88.52 68.007 87.9729C67.2942 85.9327 65.3357 85.0345 63.4629 84.3461C61.0283 83.451 58.3773 82.739 55.864 83.38C53.3506 84.021 51.1294 86.4564 51.5831 89.0123C51.9479 91.0676 53.8851 92.7778 53.6101 94.8471C53.3333 96.9297 50.9932 98.0259 48.9272 98.3982C46.8613 98.7704 44.5494 98.89 43.0647 100.375C41.1707 102.27 41.6436 105.656 43.4258 107.657C45.2081 109.657 47.8975 110.564 50.5036 111.18C53.9565 111.997 57.6911 112.426 60.9704 111.071C64.2498 109.715 66.8018 106.067 65.8518 102.645C65.4505 101.2 64.5053 99.9787 63.5917 98.7897C62.6781 97.6006 61.7531 96.3573 61.4046 94.8984C61.1142 93.6827 61.3291 92.2713 62.1346 91.3594C62.2811 91.1998 62.3733 90.9978 62.398 90.7824C62.4227 90.5671 62.3785 90.3495 62.2719 90.1608L62.2579 90.1368Z" fill="#2F2E41"/>
<path d="M119.919 171.978H116.978L115.58 160.628H119.919L119.919 171.978Z" fill="#FFB8B8"/>
<path d="M114.878 171.138H120.549V174.711H111.308C111.308 174.242 111.4 173.777 111.579 173.344C111.759 172.91 112.022 172.516 112.353 172.184C112.685 171.852 113.079 171.589 113.512 171.41C113.945 171.23 114.409 171.138 114.878 171.138Z" fill="#2F2E41"/>
<path d="M130.951 171.978H128.011L126.612 160.628H130.952L130.951 171.978Z" fill="#FFB8B8"/>
<path d="M125.911 171.138H131.581V174.711H122.34C122.34 174.242 122.433 173.777 122.612 173.344C122.791 172.91 123.054 172.516 123.386 172.184C123.718 171.852 124.111 171.589 124.544 171.41C124.977 171.23 125.442 171.138 125.911 171.138Z" fill="#2F2E41"/>
<path d="M130.592 138.172C130.275 137.968 130.007 137.697 129.806 137.378C129.605 137.059 129.477 136.7 129.43 136.326C129.383 135.952 129.418 135.572 129.533 135.213C129.649 134.854 129.841 134.525 130.098 134.249L128.161 106.75L133.738 107.292L133.892 134.221C134.327 134.682 134.578 135.288 134.597 135.922C134.616 136.557 134.402 137.176 133.995 137.663C133.589 138.15 133.017 138.471 132.39 138.565C131.763 138.658 131.123 138.519 130.592 138.172H130.592Z" fill="#FFB8B8"/>
<path d="M119.78 166.26L116.543 166.106C116.267 166.093 116.007 165.974 115.816 165.775C115.625 165.576 115.517 165.311 115.515 165.034L115.289 132.255C115.288 132.1 115.321 131.946 115.384 131.804C115.448 131.662 115.542 131.536 115.659 131.433C115.777 131.331 115.914 131.256 116.064 131.212C116.213 131.168 116.37 131.156 116.523 131.179L129.473 133.06C129.729 133.096 129.963 133.223 130.133 133.418C130.303 133.613 130.397 133.862 130.397 134.121L132.063 164.494C132.064 164.637 132.037 164.778 131.983 164.91C131.929 165.042 131.85 165.162 131.75 165.263C131.649 165.365 131.53 165.445 131.398 165.5C131.267 165.554 131.126 165.583 130.984 165.583H127.494C127.236 165.584 126.987 165.492 126.792 165.325C126.596 165.157 126.467 164.925 126.428 164.67L124.275 150.972C124.243 150.771 124.14 150.589 123.985 150.459C123.83 150.328 123.633 150.259 123.43 150.262C123.227 150.266 123.033 150.343 122.882 150.479C122.732 150.615 122.636 150.801 122.612 151.003L120.903 165.31C120.871 165.572 120.744 165.813 120.547 165.988C120.349 166.163 120.095 166.261 119.831 166.262C119.814 166.262 119.797 166.261 119.78 166.26Z" fill="#2F2E41"/>
<path d="M122.059 134.122C119.205 132.536 116.975 132.118 115.9 132.011C115.757 131.997 115.618 131.955 115.492 131.886C115.366 131.817 115.256 131.723 115.167 131.61C115.077 131.496 115.01 131.365 114.972 131.224C114.933 131.084 114.924 130.937 114.944 130.793L118.047 107.737C118.225 106.388 118.746 105.108 119.559 104.017C120.372 102.926 121.45 102.062 122.691 101.506C123.892 100.954 125.215 100.718 126.533 100.821C127.851 100.925 129.12 101.364 130.221 102.097C130.327 102.168 130.431 102.24 130.534 102.314C131.801 103.243 132.765 104.527 133.304 106.004C133.844 107.481 133.934 109.085 133.564 110.613C131.662 118.403 131.008 131.175 130.896 133.656C130.888 133.868 130.816 134.072 130.692 134.243C130.567 134.414 130.395 134.545 130.196 134.618C129.026 135.044 127.79 135.264 126.545 135.269C124.976 135.278 123.431 134.883 122.059 134.122Z" fill="#2E69C2"/>
<path d="M129.424 115.99C129.293 115.896 129.185 115.774 129.108 115.633C129.031 115.491 128.987 115.335 128.978 115.174L128.569 107.762C128.529 107.028 128.762 106.305 129.222 105.732C129.683 105.159 130.34 104.778 131.065 104.66C131.791 104.543 132.534 104.699 133.151 105.098C133.768 105.497 134.216 106.11 134.409 106.82L136.204 113.446C136.278 113.723 136.24 114.017 136.098 114.266C135.956 114.514 135.721 114.696 135.444 114.771L130.338 116.157C130.183 116.199 130.02 116.206 129.862 116.178C129.704 116.149 129.554 116.085 129.424 115.99Z" fill="#2E69C2"/>
<path d="M124.654 98.3758C127.907 98.3758 130.545 95.7363 130.545 92.4802C130.545 89.2242 127.907 86.5846 124.654 86.5846C121.401 86.5846 118.763 89.2242 118.763 92.4802C118.763 95.7363 121.401 98.3758 124.654 98.3758Z" fill="#FFB8B8"/>
<path d="M103.308 104.063C103.337 104.193 103.356 104.324 103.365 104.457L113.668 110.406L116.172 108.963L118.842 112.461L113.484 116.282L101.73 107.002C101.251 107.179 100.729 107.206 100.234 107.08C99.7385 106.953 99.2935 106.679 98.9579 106.293C98.6223 105.907 98.4121 105.428 98.3552 104.919C98.2983 104.411 98.3973 103.897 98.6392 103.447C98.8811 102.996 99.2544 102.63 99.7093 102.396C100.164 102.163 100.679 102.074 101.186 102.141C101.693 102.208 102.167 102.428 102.546 102.771C102.925 103.114 103.191 103.565 103.308 104.063Z" fill="#FFB8B8"/>
<path d="M114.036 109.9C114.019 109.74 114.037 109.578 114.091 109.426C114.145 109.274 114.232 109.136 114.346 109.023L119.589 103.773C120.109 103.253 120.803 102.944 121.536 102.906C122.27 102.867 122.992 103.102 123.563 103.565C124.134 104.027 124.514 104.685 124.629 105.412C124.744 106.138 124.587 106.881 124.187 107.498L120.452 113.257C120.296 113.497 120.052 113.665 119.772 113.725C119.492 113.785 119.2 113.731 118.96 113.575L114.522 110.693C114.386 110.605 114.273 110.489 114.189 110.351C114.105 110.214 114.052 110.06 114.036 109.9Z" fill="#2E69C2"/>
<path d="M128.822 97.1445C127.724 98.3161 125.683 97.6872 125.539 96.0866C125.528 95.9624 125.529 95.8373 125.542 95.7132C125.616 95.0042 126.025 94.3606 125.927 93.612C125.905 93.4257 125.836 93.2481 125.726 93.0962C124.85 91.9225 122.794 93.6211 121.968 92.5586C121.461 91.9072 122.057 90.8815 121.668 90.1533C121.155 89.1923 119.634 89.6664 118.681 89.1401C117.62 88.5545 117.684 86.9257 118.382 85.9349C119.233 84.7267 120.726 84.0819 122.201 83.989C123.675 83.8961 125.14 84.295 126.516 84.8319C128.08 85.4419 129.631 86.285 130.593 87.6614C131.764 89.3352 131.877 91.5855 131.291 93.5428C130.935 94.7334 129.72 96.1878 128.822 97.1445Z" fill="#2F2E41"/>
<path d="M176.76 175H0.239837C0.176229 175 0.115225 174.975 0.0702466 174.93C0.0252683 174.885 0 174.824 0 174.76C0 174.696 0.0252683 174.635 0.0702466 174.59C0.115225 174.545 0.176229 174.52 0.239837 174.52H176.76C176.824 174.52 176.885 174.545 176.93 174.59C176.975 174.635 177 174.696 177 174.76C177 174.824 176.975 174.885 176.93 174.93C176.885 174.975 176.824 175 176.76 175Z" fill="#CCCCCC"/>
</svg>
